%TF.GenerationSoftware,KiCad,Pcbnew,9.0.4*%
%TF.CreationDate,2025-09-29T19:16:59+01:00*%
%TF.ProjectId,ay-zonic-core,61792d7a-6f6e-4696-932d-636f72652e6b,2.0*%
%TF.SameCoordinates,Original*%
%TF.FileFunction,Legend,Top*%
%TF.FilePolarity,Positive*%
%FSLAX46Y46*%
G04 Gerber Fmt 4.6, Leading zero omitted, Abs format (unit mm)*
G04 Created by KiCad (PCBNEW 9.0.4) date 2025-09-29 19:16:59*
%MOMM*%
%LPD*%
G01*
G04 APERTURE LIST*
%ADD10C,0.100000*%
%ADD11C,0.508000*%
G04 APERTURE END LIST*
D10*
X72900265Y-113666732D02*
X73376455Y-113666732D01*
X72805027Y-113952447D02*
X73138360Y-112952447D01*
X73138360Y-112952447D02*
X73471693Y-113952447D01*
X73995503Y-113476256D02*
X73995503Y-113952447D01*
X73662170Y-112952447D02*
X73995503Y-113476256D01*
X73995503Y-113476256D02*
X74328836Y-112952447D01*
X74662170Y-113571494D02*
X75424075Y-113571494D01*
X75805027Y-112952447D02*
X76471693Y-112952447D01*
X76471693Y-112952447D02*
X75805027Y-113952447D01*
X75805027Y-113952447D02*
X76471693Y-113952447D01*
X77043122Y-112952447D02*
X77233598Y-112952447D01*
X77233598Y-112952447D02*
X77328836Y-113000066D01*
X77328836Y-113000066D02*
X77424074Y-113095304D01*
X77424074Y-113095304D02*
X77471693Y-113285780D01*
X77471693Y-113285780D02*
X77471693Y-113619113D01*
X77471693Y-113619113D02*
X77424074Y-113809589D01*
X77424074Y-113809589D02*
X77328836Y-113904828D01*
X77328836Y-113904828D02*
X77233598Y-113952447D01*
X77233598Y-113952447D02*
X77043122Y-113952447D01*
X77043122Y-113952447D02*
X76947884Y-113904828D01*
X76947884Y-113904828D02*
X76852646Y-113809589D01*
X76852646Y-113809589D02*
X76805027Y-113619113D01*
X76805027Y-113619113D02*
X76805027Y-113285780D01*
X76805027Y-113285780D02*
X76852646Y-113095304D01*
X76852646Y-113095304D02*
X76947884Y-113000066D01*
X76947884Y-113000066D02*
X77043122Y-112952447D01*
X77900265Y-113952447D02*
X77900265Y-112952447D01*
X77900265Y-112952447D02*
X78471693Y-113952447D01*
X78471693Y-113952447D02*
X78471693Y-112952447D01*
X78947884Y-113952447D02*
X78947884Y-112952447D01*
X79995502Y-113857208D02*
X79947883Y-113904828D01*
X79947883Y-113904828D02*
X79805026Y-113952447D01*
X79805026Y-113952447D02*
X79709788Y-113952447D01*
X79709788Y-113952447D02*
X79566931Y-113904828D01*
X79566931Y-113904828D02*
X79471693Y-113809589D01*
X79471693Y-113809589D02*
X79424074Y-113714351D01*
X79424074Y-113714351D02*
X79376455Y-113523875D01*
X79376455Y-113523875D02*
X79376455Y-113381018D01*
X79376455Y-113381018D02*
X79424074Y-113190542D01*
X79424074Y-113190542D02*
X79471693Y-113095304D01*
X79471693Y-113095304D02*
X79566931Y-113000066D01*
X79566931Y-113000066D02*
X79709788Y-112952447D01*
X79709788Y-112952447D02*
X79805026Y-112952447D01*
X79805026Y-112952447D02*
X79947883Y-113000066D01*
X79947883Y-113000066D02*
X79995502Y-113047685D01*
X80424074Y-113571494D02*
X81185979Y-113571494D01*
X82233597Y-113857208D02*
X82185978Y-113904828D01*
X82185978Y-113904828D02*
X82043121Y-113952447D01*
X82043121Y-113952447D02*
X81947883Y-113952447D01*
X81947883Y-113952447D02*
X81805026Y-113904828D01*
X81805026Y-113904828D02*
X81709788Y-113809589D01*
X81709788Y-113809589D02*
X81662169Y-113714351D01*
X81662169Y-113714351D02*
X81614550Y-113523875D01*
X81614550Y-113523875D02*
X81614550Y-113381018D01*
X81614550Y-113381018D02*
X81662169Y-113190542D01*
X81662169Y-113190542D02*
X81709788Y-113095304D01*
X81709788Y-113095304D02*
X81805026Y-113000066D01*
X81805026Y-113000066D02*
X81947883Y-112952447D01*
X81947883Y-112952447D02*
X82043121Y-112952447D01*
X82043121Y-112952447D02*
X82185978Y-113000066D01*
X82185978Y-113000066D02*
X82233597Y-113047685D01*
X82805026Y-113952447D02*
X82709788Y-113904828D01*
X82709788Y-113904828D02*
X82662169Y-113857208D01*
X82662169Y-113857208D02*
X82614550Y-113761970D01*
X82614550Y-113761970D02*
X82614550Y-113476256D01*
X82614550Y-113476256D02*
X82662169Y-113381018D01*
X82662169Y-113381018D02*
X82709788Y-113333399D01*
X82709788Y-113333399D02*
X82805026Y-113285780D01*
X82805026Y-113285780D02*
X82947883Y-113285780D01*
X82947883Y-113285780D02*
X83043121Y-113333399D01*
X83043121Y-113333399D02*
X83090740Y-113381018D01*
X83090740Y-113381018D02*
X83138359Y-113476256D01*
X83138359Y-113476256D02*
X83138359Y-113761970D01*
X83138359Y-113761970D02*
X83090740Y-113857208D01*
X83090740Y-113857208D02*
X83043121Y-113904828D01*
X83043121Y-113904828D02*
X82947883Y-113952447D01*
X82947883Y-113952447D02*
X82805026Y-113952447D01*
X83566931Y-113952447D02*
X83566931Y-113285780D01*
X83566931Y-113476256D02*
X83614550Y-113381018D01*
X83614550Y-113381018D02*
X83662169Y-113333399D01*
X83662169Y-113333399D02*
X83757407Y-113285780D01*
X83757407Y-113285780D02*
X83852645Y-113285780D01*
X84566931Y-113904828D02*
X84471693Y-113952447D01*
X84471693Y-113952447D02*
X84281217Y-113952447D01*
X84281217Y-113952447D02*
X84185979Y-113904828D01*
X84185979Y-113904828D02*
X84138360Y-113809589D01*
X84138360Y-113809589D02*
X84138360Y-113428637D01*
X84138360Y-113428637D02*
X84185979Y-113333399D01*
X84185979Y-113333399D02*
X84281217Y-113285780D01*
X84281217Y-113285780D02*
X84471693Y-113285780D01*
X84471693Y-113285780D02*
X84566931Y-113333399D01*
X84566931Y-113333399D02*
X84614550Y-113428637D01*
X84614550Y-113428637D02*
X84614550Y-113523875D01*
X84614550Y-113523875D02*
X84138360Y-113619113D01*
X86376455Y-113952447D02*
X86043122Y-113476256D01*
X85805027Y-113952447D02*
X85805027Y-112952447D01*
X85805027Y-112952447D02*
X86185979Y-112952447D01*
X86185979Y-112952447D02*
X86281217Y-113000066D01*
X86281217Y-113000066D02*
X86328836Y-113047685D01*
X86328836Y-113047685D02*
X86376455Y-113142923D01*
X86376455Y-113142923D02*
X86376455Y-113285780D01*
X86376455Y-113285780D02*
X86328836Y-113381018D01*
X86328836Y-113381018D02*
X86281217Y-113428637D01*
X86281217Y-113428637D02*
X86185979Y-113476256D01*
X86185979Y-113476256D02*
X85805027Y-113476256D01*
X87185979Y-113904828D02*
X87090741Y-113952447D01*
X87090741Y-113952447D02*
X86900265Y-113952447D01*
X86900265Y-113952447D02*
X86805027Y-113904828D01*
X86805027Y-113904828D02*
X86757408Y-113809589D01*
X86757408Y-113809589D02*
X86757408Y-113428637D01*
X86757408Y-113428637D02*
X86805027Y-113333399D01*
X86805027Y-113333399D02*
X86900265Y-113285780D01*
X86900265Y-113285780D02*
X87090741Y-113285780D01*
X87090741Y-113285780D02*
X87185979Y-113333399D01*
X87185979Y-113333399D02*
X87233598Y-113428637D01*
X87233598Y-113428637D02*
X87233598Y-113523875D01*
X87233598Y-113523875D02*
X86757408Y-113619113D01*
X87566932Y-113285780D02*
X87805027Y-113952447D01*
X87805027Y-113952447D02*
X88043122Y-113285780D01*
X88376456Y-113047685D02*
X88424075Y-113000066D01*
X88424075Y-113000066D02*
X88519313Y-112952447D01*
X88519313Y-112952447D02*
X88757408Y-112952447D01*
X88757408Y-112952447D02*
X88852646Y-113000066D01*
X88852646Y-113000066D02*
X88900265Y-113047685D01*
X88900265Y-113047685D02*
X88947884Y-113142923D01*
X88947884Y-113142923D02*
X88947884Y-113238161D01*
X88947884Y-113238161D02*
X88900265Y-113381018D01*
X88900265Y-113381018D02*
X88328837Y-113952447D01*
X88328837Y-113952447D02*
X88947884Y-113952447D01*
X89376456Y-113857208D02*
X89424075Y-113904828D01*
X89424075Y-113904828D02*
X89376456Y-113952447D01*
X89376456Y-113952447D02*
X89328837Y-113904828D01*
X89328837Y-113904828D02*
X89376456Y-113857208D01*
X89376456Y-113857208D02*
X89376456Y-113952447D01*
X90043122Y-112952447D02*
X90138360Y-112952447D01*
X90138360Y-112952447D02*
X90233598Y-113000066D01*
X90233598Y-113000066D02*
X90281217Y-113047685D01*
X90281217Y-113047685D02*
X90328836Y-113142923D01*
X90328836Y-113142923D02*
X90376455Y-113333399D01*
X90376455Y-113333399D02*
X90376455Y-113571494D01*
X90376455Y-113571494D02*
X90328836Y-113761970D01*
X90328836Y-113761970D02*
X90281217Y-113857208D01*
X90281217Y-113857208D02*
X90233598Y-113904828D01*
X90233598Y-113904828D02*
X90138360Y-113952447D01*
X90138360Y-113952447D02*
X90043122Y-113952447D01*
X90043122Y-113952447D02*
X89947884Y-113904828D01*
X89947884Y-113904828D02*
X89900265Y-113857208D01*
X89900265Y-113857208D02*
X89852646Y-113761970D01*
X89852646Y-113761970D02*
X89805027Y-113571494D01*
X89805027Y-113571494D02*
X89805027Y-113333399D01*
X89805027Y-113333399D02*
X89852646Y-113142923D01*
X89852646Y-113142923D02*
X89900265Y-113047685D01*
X89900265Y-113047685D02*
X89947884Y-113000066D01*
X89947884Y-113000066D02*
X90043122Y-112952447D01*
X72900265Y-114657629D02*
X72947884Y-114610010D01*
X72947884Y-114610010D02*
X73043122Y-114562391D01*
X73043122Y-114562391D02*
X73281217Y-114562391D01*
X73281217Y-114562391D02*
X73376455Y-114610010D01*
X73376455Y-114610010D02*
X73424074Y-114657629D01*
X73424074Y-114657629D02*
X73471693Y-114752867D01*
X73471693Y-114752867D02*
X73471693Y-114848105D01*
X73471693Y-114848105D02*
X73424074Y-114990962D01*
X73424074Y-114990962D02*
X72852646Y-115562391D01*
X72852646Y-115562391D02*
X73471693Y-115562391D01*
X74090741Y-114562391D02*
X74185979Y-114562391D01*
X74185979Y-114562391D02*
X74281217Y-114610010D01*
X74281217Y-114610010D02*
X74328836Y-114657629D01*
X74328836Y-114657629D02*
X74376455Y-114752867D01*
X74376455Y-114752867D02*
X74424074Y-114943343D01*
X74424074Y-114943343D02*
X74424074Y-115181438D01*
X74424074Y-115181438D02*
X74376455Y-115371914D01*
X74376455Y-115371914D02*
X74328836Y-115467152D01*
X74328836Y-115467152D02*
X74281217Y-115514772D01*
X74281217Y-115514772D02*
X74185979Y-115562391D01*
X74185979Y-115562391D02*
X74090741Y-115562391D01*
X74090741Y-115562391D02*
X73995503Y-115514772D01*
X73995503Y-115514772D02*
X73947884Y-115467152D01*
X73947884Y-115467152D02*
X73900265Y-115371914D01*
X73900265Y-115371914D02*
X73852646Y-115181438D01*
X73852646Y-115181438D02*
X73852646Y-114943343D01*
X73852646Y-114943343D02*
X73900265Y-114752867D01*
X73900265Y-114752867D02*
X73947884Y-114657629D01*
X73947884Y-114657629D02*
X73995503Y-114610010D01*
X73995503Y-114610010D02*
X74090741Y-114562391D01*
X74805027Y-114657629D02*
X74852646Y-114610010D01*
X74852646Y-114610010D02*
X74947884Y-114562391D01*
X74947884Y-114562391D02*
X75185979Y-114562391D01*
X75185979Y-114562391D02*
X75281217Y-114610010D01*
X75281217Y-114610010D02*
X75328836Y-114657629D01*
X75328836Y-114657629D02*
X75376455Y-114752867D01*
X75376455Y-114752867D02*
X75376455Y-114848105D01*
X75376455Y-114848105D02*
X75328836Y-114990962D01*
X75328836Y-114990962D02*
X74757408Y-115562391D01*
X74757408Y-115562391D02*
X75376455Y-115562391D01*
X76281217Y-114562391D02*
X75805027Y-114562391D01*
X75805027Y-114562391D02*
X75757408Y-115038581D01*
X75757408Y-115038581D02*
X75805027Y-114990962D01*
X75805027Y-114990962D02*
X75900265Y-114943343D01*
X75900265Y-114943343D02*
X76138360Y-114943343D01*
X76138360Y-114943343D02*
X76233598Y-114990962D01*
X76233598Y-114990962D02*
X76281217Y-115038581D01*
X76281217Y-115038581D02*
X76328836Y-115133819D01*
X76328836Y-115133819D02*
X76328836Y-115371914D01*
X76328836Y-115371914D02*
X76281217Y-115467152D01*
X76281217Y-115467152D02*
X76233598Y-115514772D01*
X76233598Y-115514772D02*
X76138360Y-115562391D01*
X76138360Y-115562391D02*
X75900265Y-115562391D01*
X75900265Y-115562391D02*
X75805027Y-115514772D01*
X75805027Y-115514772D02*
X75757408Y-115467152D01*
X77805027Y-114562391D02*
X77805027Y-115276676D01*
X77805027Y-115276676D02*
X77757408Y-115419533D01*
X77757408Y-115419533D02*
X77662170Y-115514772D01*
X77662170Y-115514772D02*
X77519313Y-115562391D01*
X77519313Y-115562391D02*
X77424075Y-115562391D01*
X78281218Y-115467152D02*
X78328837Y-115514772D01*
X78328837Y-115514772D02*
X78281218Y-115562391D01*
X78281218Y-115562391D02*
X78233599Y-115514772D01*
X78233599Y-115514772D02*
X78281218Y-115467152D01*
X78281218Y-115467152D02*
X78281218Y-115562391D01*
X79281217Y-114610010D02*
X79185979Y-114562391D01*
X79185979Y-114562391D02*
X79043122Y-114562391D01*
X79043122Y-114562391D02*
X78900265Y-114610010D01*
X78900265Y-114610010D02*
X78805027Y-114705248D01*
X78805027Y-114705248D02*
X78757408Y-114800486D01*
X78757408Y-114800486D02*
X78709789Y-114990962D01*
X78709789Y-114990962D02*
X78709789Y-115133819D01*
X78709789Y-115133819D02*
X78757408Y-115324295D01*
X78757408Y-115324295D02*
X78805027Y-115419533D01*
X78805027Y-115419533D02*
X78900265Y-115514772D01*
X78900265Y-115514772D02*
X79043122Y-115562391D01*
X79043122Y-115562391D02*
X79138360Y-115562391D01*
X79138360Y-115562391D02*
X79281217Y-115514772D01*
X79281217Y-115514772D02*
X79328836Y-115467152D01*
X79328836Y-115467152D02*
X79328836Y-115133819D01*
X79328836Y-115133819D02*
X79138360Y-115133819D01*
X79757408Y-115562391D02*
X79757408Y-114895724D01*
X79757408Y-115086200D02*
X79805027Y-114990962D01*
X79805027Y-114990962D02*
X79852646Y-114943343D01*
X79852646Y-114943343D02*
X79947884Y-114895724D01*
X79947884Y-114895724D02*
X80043122Y-114895724D01*
X80805027Y-115562391D02*
X80805027Y-115038581D01*
X80805027Y-115038581D02*
X80757408Y-114943343D01*
X80757408Y-114943343D02*
X80662170Y-114895724D01*
X80662170Y-114895724D02*
X80471694Y-114895724D01*
X80471694Y-114895724D02*
X80376456Y-114943343D01*
X80805027Y-115514772D02*
X80709789Y-115562391D01*
X80709789Y-115562391D02*
X80471694Y-115562391D01*
X80471694Y-115562391D02*
X80376456Y-115514772D01*
X80376456Y-115514772D02*
X80328837Y-115419533D01*
X80328837Y-115419533D02*
X80328837Y-115324295D01*
X80328837Y-115324295D02*
X80376456Y-115229057D01*
X80376456Y-115229057D02*
X80471694Y-115181438D01*
X80471694Y-115181438D02*
X80709789Y-115181438D01*
X80709789Y-115181438D02*
X80805027Y-115133819D01*
X81138361Y-114895724D02*
X81519313Y-114895724D01*
X81281218Y-114562391D02*
X81281218Y-115419533D01*
X81281218Y-115419533D02*
X81328837Y-115514772D01*
X81328837Y-115514772D02*
X81424075Y-115562391D01*
X81424075Y-115562391D02*
X81519313Y-115562391D01*
X81709790Y-114895724D02*
X82090742Y-114895724D01*
X81852647Y-114562391D02*
X81852647Y-115419533D01*
X81852647Y-115419533D02*
X81900266Y-115514772D01*
X81900266Y-115514772D02*
X81995504Y-115562391D01*
X81995504Y-115562391D02*
X82090742Y-115562391D01*
X82566933Y-115562391D02*
X82471695Y-115514772D01*
X82471695Y-115514772D02*
X82424076Y-115467152D01*
X82424076Y-115467152D02*
X82376457Y-115371914D01*
X82376457Y-115371914D02*
X82376457Y-115086200D01*
X82376457Y-115086200D02*
X82424076Y-114990962D01*
X82424076Y-114990962D02*
X82471695Y-114943343D01*
X82471695Y-114943343D02*
X82566933Y-114895724D01*
X82566933Y-114895724D02*
X82709790Y-114895724D01*
X82709790Y-114895724D02*
X82805028Y-114943343D01*
X82805028Y-114943343D02*
X82852647Y-114990962D01*
X82852647Y-114990962D02*
X82900266Y-115086200D01*
X82900266Y-115086200D02*
X82900266Y-115371914D01*
X82900266Y-115371914D02*
X82852647Y-115467152D01*
X82852647Y-115467152D02*
X82805028Y-115514772D01*
X82805028Y-115514772D02*
X82709790Y-115562391D01*
X82709790Y-115562391D02*
X82566933Y-115562391D01*
X83328838Y-114895724D02*
X83328838Y-115562391D01*
X83328838Y-114990962D02*
X83376457Y-114943343D01*
X83376457Y-114943343D02*
X83471695Y-114895724D01*
X83471695Y-114895724D02*
X83614552Y-114895724D01*
X83614552Y-114895724D02*
X83709790Y-114943343D01*
X83709790Y-114943343D02*
X83757409Y-115038581D01*
X83757409Y-115038581D02*
X83757409Y-115562391D01*
D11*
%TO.C,Line Out*%
X118103000Y-49325001D02*
G75*
G02*
X117341000Y-49325001I-381000J0D01*
G01*
X117341000Y-49325001D02*
G75*
G02*
X118103000Y-49325001I381000J0D01*
G01*
%TD*%
M02*
