M48
; DRILL file {KiCad 9.0.4} date 2025-09-25T21:38:53+0100
; FORMAT={-:-/ absolute / metric / decimal}
; #@! TF.CreationDate,2025-09-25T21:38:53+01:00
; #@! TF.GenerationSoftware,Kicad,Pcbnew,9.0.4
; #@! TF.FileFunction,MixedPlating,1,2
FMAT,2
METRIC
; #@! TA.AperFunction,Plated,PTH,ViaDrill
T1C0.300
; #@! TA.AperFunction,Plated,PTH,ViaDrill
T2C0.400
; #@! TA.AperFunction,Plated,PTH,ComponentDrill
T3C0.800
; #@! TA.AperFunction,Plated,PTH,ComponentDrill
T4C1.000
; #@! TA.AperFunction,Plated,PTH,ComponentDrill
T5C1.245
; #@! TA.AperFunction,NonPlated,NPTH,ComponentDrill
T6C1.194
%
G90
G05
T1
X71.39Y-115.98
X74.67Y-87.906
X77.367Y-113.795
X85.428Y-107.682
X86.763Y-86.994
X87.126Y-99.294
X92.087Y-104.182
X92.681Y-73.33
X93.013Y-99.294
X98.752Y-101.929
X98.873Y-119.671
X100.04Y-118.789
X104.157Y-107.15
X105.768Y-109.14
X106.591Y-75.764
X110.852Y-73.099
X120.68Y-118.321
X121.351Y-103.957
T2
X65.764Y-76.093
T3
X67.564Y-92.964
X67.564Y-95.504
X67.564Y-98.044
X67.564Y-100.584
X67.564Y-103.124
X67.564Y-105.664
X67.564Y-108.204
X68.326Y-56.154
X68.326Y-58.654
X68.834Y-75.184
X68.834Y-80.264
X68.834Y-85.344
X70.144Y-89.916
X71.374Y-56.134
X71.374Y-71.374
X71.374Y-75.184
X71.374Y-80.264
X71.374Y-85.344
X72.644Y-89.916
X73.914Y-56.134
X73.914Y-71.374
X73.914Y-75.184
X73.914Y-80.264
X73.914Y-85.344
X75.184Y-92.964
X75.184Y-95.504
X75.184Y-98.044
X75.184Y-100.584
X75.184Y-103.124
X75.184Y-105.664
X75.184Y-108.204
X76.454Y-56.134
X76.454Y-71.374
X76.454Y-75.184
X76.454Y-80.264
X76.454Y-85.344
X78.994Y-56.134
X78.994Y-71.374
X78.994Y-75.184
X78.994Y-80.264
X78.994Y-85.344
X81.534Y-56.134
X81.534Y-71.374
X81.534Y-75.184
X81.534Y-80.264
X81.534Y-85.344
X82.296Y-92.964
X82.296Y-95.504
X82.296Y-98.044
X82.296Y-100.584
X82.296Y-103.124
X82.296Y-105.664
X82.296Y-108.204
X84.074Y-56.134
X84.074Y-71.374
X84.074Y-75.184
X84.074Y-80.264
X84.074Y-85.344
X84.856Y-89.916
X86.614Y-56.134
X86.614Y-71.374
X86.614Y-75.184
X86.614Y-80.264
X86.614Y-85.344
X87.356Y-89.916
X89.154Y-56.134
X89.154Y-71.374
X89.154Y-75.184
X89.916Y-92.964
X89.916Y-95.504
X89.916Y-98.044
X89.916Y-100.584
X89.916Y-103.124
X89.916Y-105.664
X89.916Y-108.204
X91.694Y-56.134
X91.694Y-71.374
X94.234Y-56.134
X94.234Y-71.374
X95.25Y-92.964
X95.25Y-95.504
X95.25Y-98.044
X95.25Y-100.584
X95.25Y-103.124
X95.25Y-105.664
X95.25Y-108.204
X96.774Y-56.134
X96.774Y-71.374
X96.774Y-77.216
X96.774Y-84.836
X97.83Y-89.916
X99.314Y-56.134
X99.314Y-71.374
X100.33Y-89.916
X101.854Y-56.134
X101.854Y-71.374
X102.616Y-77.978
X102.616Y-81.026
X102.616Y-84.074
X102.87Y-92.964
X102.87Y-95.504
X102.87Y-98.044
X102.87Y-100.584
X102.87Y-103.124
X102.87Y-105.664
X102.87Y-108.204
X104.394Y-56.134
X104.394Y-71.374
X106.172Y-92.71
X106.172Y-100.33
X108.204Y-56.134
X108.204Y-63.754
X110.236Y-77.978
X110.236Y-81.026
X110.236Y-84.074
X110.49Y-66.802
X110.49Y-74.422
X110.744Y-92.71
X110.744Y-100.33
X111.252Y-56.134
X111.252Y-63.754
X114.332Y-81.026
X114.554Y-71.374
X114.554Y-74.422
X114.574Y-66.802
X115.316Y-92.964
X115.316Y-95.504
X115.316Y-98.044
X115.316Y-100.584
X115.316Y-103.124
X115.316Y-105.664
X115.316Y-108.204
X116.332Y-81.026
X117.074Y-66.802
X117.876Y-89.916
X119.654Y-66.802
X120.376Y-89.916
X120.428Y-81.026
X122.154Y-66.802
X122.174Y-71.374
X122.174Y-74.422
X122.428Y-81.026
X122.936Y-92.964
X122.936Y-95.504
X122.936Y-98.044
X122.936Y-100.584
X122.936Y-103.124
X122.936Y-105.664
X122.936Y-108.204
T4
X67.31Y-120.904
X67.31Y-125.984
X69.85Y-120.904
X69.85Y-125.984
X74.93Y-120.904
X74.93Y-125.984
X76.454Y-52.07
X77.47Y-120.904
X77.47Y-125.984
X78.994Y-52.07
X80.01Y-120.904
X80.01Y-125.984
X81.534Y-52.07
X82.55Y-120.904
X82.55Y-125.984
X84.074Y-52.07
X85.09Y-120.904
X85.09Y-125.984
X86.614Y-52.07
X87.63Y-120.904
X87.63Y-125.984
X89.154Y-52.07
X90.17Y-120.904
X90.17Y-125.984
X91.694Y-52.07
X92.71Y-120.904
X92.71Y-125.984
X94.234Y-52.07
X95.25Y-120.904
X95.25Y-125.984
X96.774Y-52.07
X97.79Y-120.904
X97.79Y-125.984
X99.314Y-52.07
X100.33Y-120.904
X100.33Y-125.984
X102.87Y-120.904
X102.87Y-125.984
X105.41Y-120.904
X105.41Y-125.984
X107.95Y-120.904
X107.95Y-125.984
X110.49Y-120.904
X110.49Y-125.984
X113.03Y-120.904
X113.03Y-125.984
X115.57Y-120.904
X115.57Y-125.984
X118.11Y-120.904
X118.11Y-125.984
X120.65Y-120.904
X120.65Y-125.984
X123.19Y-120.904
X123.19Y-125.984
T5
X116.158Y-52.23
X116.158Y-54.73
X116.158Y-59.73
X116.158Y-62.23
X121.158Y-57.23
T6
X116.158Y-57.23
X121.158Y-52.23
X121.158Y-62.23
X123.658Y-52.23
X123.658Y-62.23
M30
