%TF.GenerationSoftware,KiCad,Pcbnew,9.0.4*%
%TF.CreationDate,2025-09-30T10:08:12+01:00*%
%TF.ProjectId,ay-zonic-core,61792d7a-6f6e-4696-932d-636f72652e6b,2.0*%
%TF.SameCoordinates,Original*%
%TF.FileFunction,Copper,L2,Bot*%
%TF.FilePolarity,Positive*%
%FSLAX46Y46*%
G04 Gerber Fmt 4.6, Leading zero omitted, Abs format (unit mm)*
G04 Created by KiCad (PCBNEW 9.0.4) date 2025-09-30 10:08:12*
%MOMM*%
%LPD*%
G01*
G04 APERTURE LIST*
G04 Aperture macros list*
%AMRoundRect*
0 Rectangle with rounded corners*
0 $1 Rounding radius*
0 $2 $3 $4 $5 $6 $7 $8 $9 X,Y pos of 4 corners*
0 Add a 4 corners polygon primitive as box body*
4,1,4,$2,$3,$4,$5,$6,$7,$8,$9,$2,$3,0*
0 Add four circle primitives for the rounded corners*
1,1,$1+$1,$2,$3*
1,1,$1+$1,$4,$5*
1,1,$1+$1,$6,$7*
1,1,$1+$1,$8,$9*
0 Add four rect primitives between the rounded corners*
20,1,$1+$1,$2,$3,$4,$5,0*
20,1,$1+$1,$4,$5,$6,$7,0*
20,1,$1+$1,$6,$7,$8,$9,0*
20,1,$1+$1,$8,$9,$2,$3,0*%
G04 Aperture macros list end*
%TA.AperFunction,ComponentPad*%
%ADD10C,5.600000*%
%TD*%
%TA.AperFunction,ComponentPad*%
%ADD11C,1.700000*%
%TD*%
%TA.AperFunction,ComponentPad*%
%ADD12RoundRect,0.250000X0.950000X0.550000X-0.950000X0.550000X-0.950000X-0.550000X0.950000X-0.550000X0*%
%TD*%
%TA.AperFunction,ComponentPad*%
%ADD13O,2.400000X1.600000*%
%TD*%
%TA.AperFunction,ComponentPad*%
%ADD14C,1.600000*%
%TD*%
%TA.AperFunction,ComponentPad*%
%ADD15C,1.752600*%
%TD*%
%TA.AperFunction,ComponentPad*%
%ADD16RoundRect,0.250000X0.550000X0.550000X-0.550000X0.550000X-0.550000X-0.550000X0.550000X-0.550000X0*%
%TD*%
%TA.AperFunction,ComponentPad*%
%ADD17RoundRect,0.250000X-0.550000X0.550000X-0.550000X-0.550000X0.550000X-0.550000X0.550000X0.550000X0*%
%TD*%
%TA.AperFunction,ComponentPad*%
%ADD18R,1.600000X1.600000*%
%TD*%
%TA.AperFunction,ComponentPad*%
%ADD19RoundRect,0.250000X-0.550000X0.950000X-0.550000X-0.950000X0.550000X-0.950000X0.550000X0.950000X0*%
%TD*%
%TA.AperFunction,ComponentPad*%
%ADD20O,1.600000X2.400000*%
%TD*%
%TA.AperFunction,ComponentPad*%
%ADD21R,1.700000X1.700000*%
%TD*%
%TA.AperFunction,ViaPad*%
%ADD22C,0.600000*%
%TD*%
%TA.AperFunction,Conductor*%
%ADD23C,0.250000*%
%TD*%
%TA.AperFunction,Conductor*%
%ADD24C,0.500000*%
%TD*%
%TA.AperFunction,Conductor*%
%ADD25C,1.000000*%
%TD*%
G04 APERTURE END LIST*
D10*
%TO.P,H2,1*%
%TO.N,N/C*%
X67310000Y-113792000D03*
%TD*%
%TO.P,H1,1*%
%TO.N,N/C*%
X123190000Y-113792000D03*
%TD*%
%TO.P,H3,1*%
%TO.N,N/C*%
X67056000Y-45720000D03*
%TD*%
%TO.P,H4,1*%
%TO.N,N/C*%
X123190000Y-45720000D03*
%TD*%
D11*
%TO.P,CO1,A3,+5Vcc*%
%TO.N,VCC*%
X67310000Y-125984000D03*
%TO.P,CO1,A4,+9Vcc*%
%TO.N,unconnected-(CO1-+9Vcc-PadA4)*%
X69850000Y-125984000D03*
%TO.P,CO1,A6,GND*%
%TO.N,GND*%
X74930000Y-125984000D03*
%TO.P,CO1,A7,GND*%
X77470000Y-125984000D03*
%TO.P,CO1,A8,CLK*%
%TO.N,/CLK*%
X80010000Y-125984000D03*
%TO.P,CO1,A9,A0*%
%TO.N,/A0*%
X82550000Y-125984000D03*
%TO.P,CO1,A10,A1*%
%TO.N,/A1*%
X85090000Y-125984000D03*
%TO.P,CO1,A11,A2*%
%TO.N,/A2*%
X87630000Y-125984000D03*
%TO.P,CO1,A12,A3*%
%TO.N,/A3*%
X90170000Y-125984000D03*
%TO.P,CO1,A13,A15*%
%TO.N,unconnected-(CO1-A15-PadA13)*%
X92710000Y-125984000D03*
%TO.P,CO1,A14,A14*%
%TO.N,unconnected-(CO1-PadA14)*%
X95250000Y-125984000D03*
%TO.P,CO1,A15,A13*%
%TO.N,unconnected-(CO1-A13-PadA15)*%
X97790000Y-125984000D03*
%TO.P,CO1,A16,A12*%
%TO.N,unconnected-(CO1-A12-PadA16)*%
X100330000Y-125984000D03*
%TO.P,CO1,A17,A11*%
%TO.N,unconnected-(CO1-A11-PadA17)*%
X102870000Y-125984000D03*
%TO.P,CO1,A18,A10*%
%TO.N,unconnected-(CO1-A10-PadA18)*%
X105410000Y-125984000D03*
%TO.P,CO1,A19,A9*%
%TO.N,unconnected-(CO1-A9-PadA19)*%
X107950000Y-125984000D03*
%TO.P,CO1,A20,A8*%
%TO.N,unconnected-(CO1-A8-PadA20)*%
X110490000Y-125984000D03*
%TO.P,CO1,A21,A7*%
%TO.N,/A7*%
X113030000Y-125984000D03*
%TO.P,CO1,A22,A6*%
%TO.N,unconnected-(CO1-A6-PadA22)*%
X115570000Y-125984000D03*
%TO.P,CO1,A23,A5*%
%TO.N,unconnected-(CO1-A5-PadA23)*%
X118110000Y-125984000D03*
%TO.P,CO1,A24,A4*%
%TO.N,/A4*%
X120650000Y-125984000D03*
%TO.P,CO1,A25,~{ROMCS}*%
%TO.N,unconnected-(CO1-~{ROMCS}-PadA25)*%
X123190000Y-125984000D03*
%TO.P,CO1,B3,D7*%
%TO.N,/D7*%
X67310000Y-120904000D03*
%TO.P,CO1,B4,~{RAMCS}*%
%TO.N,unconnected-(CO1-~{RAMCS}-PadB4)*%
X69850000Y-120904000D03*
%TO.P,CO1,B6,D0*%
%TO.N,/D0*%
X74930000Y-120904000D03*
%TO.P,CO1,B7,D1*%
%TO.N,/D1*%
X77470000Y-120904000D03*
%TO.P,CO1,B8,D2*%
%TO.N,/D2*%
X80010000Y-120904000D03*
%TO.P,CO1,B9,D6*%
%TO.N,/D6*%
X82550000Y-120904000D03*
%TO.P,CO1,B10,D5*%
%TO.N,/D5*%
X85090000Y-120904000D03*
%TO.P,CO1,B11,D3*%
%TO.N,/D3*%
X87630000Y-120904000D03*
%TO.P,CO1,B12,D4*%
%TO.N,/D4*%
X90170000Y-120904000D03*
%TO.P,CO1,B13,~{INT}*%
%TO.N,unconnected-(CO1-~{INT}-PadB13)*%
X92710000Y-120904000D03*
%TO.P,CO1,B14,~{NMI}*%
%TO.N,unconnected-(CO1-~{NMI}-PadB14)*%
X95250000Y-120904000D03*
%TO.P,CO1,B15,~{HALT}*%
%TO.N,unconnected-(CO1-~{HALT}-PadB15)*%
X97790000Y-120904000D03*
%TO.P,CO1,B16,~{MREQ}*%
%TO.N,unconnected-(CO1-~{MREQ}-PadB16)*%
X100330000Y-120904000D03*
%TO.P,CO1,B17,~{IOREQ}*%
%TO.N,/~{IOREQ}*%
X102870000Y-120904000D03*
%TO.P,CO1,B18,~{RD}*%
%TO.N,/~{RD}*%
X105410000Y-120904000D03*
%TO.P,CO1,B19,~{WR}*%
%TO.N,/~{WR}*%
X107950000Y-120904000D03*
%TO.P,CO1,B20,~{BUSAC}*%
%TO.N,unconnected-(CO1-~{BUSAC}-PadB20)*%
X110490000Y-120904000D03*
%TO.P,CO1,B21,~{WAIT}*%
%TO.N,unconnected-(CO1-~{WAIT}-PadB21)*%
X113030000Y-120904000D03*
%TO.P,CO1,B22,~{BUSRQ}*%
%TO.N,unconnected-(CO1-~{BUSRQ}-PadB22)*%
X115570000Y-120904000D03*
%TO.P,CO1,B23,~{RESET}*%
%TO.N,/~{RESET}*%
X118110000Y-120904000D03*
%TO.P,CO1,B24,~{M1}*%
%TO.N,unconnected-(CO1-~{M1}-PadB24)*%
X120650000Y-120904000D03*
%TO.P,CO1,B25,~{RFSH}*%
%TO.N,unconnected-(CO1-~{RFSH}-PadB25)*%
X123190000Y-120904000D03*
%TD*%
D12*
%TO.P,U5,1*%
%TO.N,/IOWR*%
X122936000Y-92964000D03*
D13*
%TO.P,U5,2*%
%TO.N,/~{IOREQ}*%
X122936000Y-95504000D03*
%TO.P,U5,3*%
%TO.N,/~{WR}*%
X122936000Y-98044000D03*
%TO.P,U5,4*%
%TO.N,Net-(U5-Pad11)*%
X122936000Y-100584000D03*
%TO.P,U5,5*%
%TO.N,Net-(U3-Pad6)*%
X122936000Y-103124000D03*
%TO.P,U5,6*%
%TO.N,Net-(U3-Pad11)*%
X122936000Y-105664000D03*
%TO.P,U5,7,GND*%
%TO.N,GND*%
X122936000Y-108204000D03*
%TO.P,U5,8*%
%TO.N,/~{IOREQ}*%
X115316000Y-108204000D03*
%TO.P,U5,9*%
%TO.N,/~{RD}*%
X115316000Y-105664000D03*
%TO.P,U5,10*%
%TO.N,/IORD*%
X115316000Y-103124000D03*
%TO.P,U5,11*%
%TO.N,Net-(U5-Pad11)*%
X115316000Y-100584000D03*
%TO.P,U5,12*%
X115316000Y-98044000D03*
%TO.P,U5,13*%
%TO.N,/BC1*%
X115316000Y-95504000D03*
%TO.P,U5,14,VCC*%
%TO.N,VCC*%
X115316000Y-92964000D03*
%TD*%
D14*
%TO.P,R8,1*%
%TO.N,Net-(C2-Pad2)*%
X114554000Y-71374000D03*
%TO.P,R8,2*%
%TO.N,/LEFT*%
X122174000Y-71374000D03*
%TD*%
%TO.P,FB1,1*%
%TO.N,GND*%
X96774000Y-84836000D03*
%TO.P,FB1,2*%
%TO.N,GND_AUDIO*%
X96774000Y-77216000D03*
%TD*%
%TO.P,C6,1*%
%TO.N,VCC*%
X70144000Y-89916000D03*
%TO.P,C6,2*%
%TO.N,GND*%
X72644000Y-89916000D03*
%TD*%
D12*
%TO.P,U2,1,~{R}*%
%TO.N,VCC*%
X75184000Y-92964000D03*
D13*
%TO.P,U2,2,D*%
%TO.N,Net-(U2A-D)*%
X75184000Y-95504000D03*
%TO.P,U2,3,C*%
%TO.N,/CLK*%
X75184000Y-98044000D03*
%TO.P,U2,4,~{S}*%
%TO.N,VCC*%
X75184000Y-100584000D03*
%TO.P,U2,5,Q*%
%TO.N,/PSGCLK*%
X75184000Y-103124000D03*
%TO.P,U2,6,~{Q}*%
%TO.N,Net-(U2A-D)*%
X75184000Y-105664000D03*
%TO.P,U2,7,GND*%
%TO.N,GND*%
X75184000Y-108204000D03*
%TO.P,U2,8,~{Q}*%
%TO.N,unconnected-(U2B-~{Q}-Pad8)*%
X67564000Y-108204000D03*
%TO.P,U2,9,Q*%
%TO.N,unconnected-(U2B-Q-Pad9)*%
X67564000Y-105664000D03*
%TO.P,U2,10,~{S}*%
%TO.N,VCC*%
X67564000Y-103124000D03*
%TO.P,U2,11,C*%
X67564000Y-100584000D03*
%TO.P,U2,12,D*%
X67564000Y-98044000D03*
%TO.P,U2,13,~{R}*%
X67564000Y-95504000D03*
%TO.P,U2,14,VCC*%
X67564000Y-92964000D03*
%TD*%
D14*
%TO.P,C3,1*%
%TO.N,/LEFT*%
X122154000Y-66802000D03*
%TO.P,C3,2*%
%TO.N,GND_AUDIO*%
X119654000Y-66802000D03*
%TD*%
D15*
%TO.P,Line Out,1,1*%
%TO.N,/RIGHT*%
X117722000Y-52230000D03*
%TO.P,Line Out,2,2*%
%TO.N,unconnected-(CO2-Pad2)*%
X117722000Y-54730000D03*
%TO.P,Line Out,3,3*%
%TO.N,unconnected-(CO2-Pad3)*%
X117722000Y-59730000D03*
%TO.P,Line Out,4,4*%
%TO.N,/LEFT*%
X117722000Y-62230000D03*
%TO.P,Line Out,5,5*%
%TO.N,GND_AUDIO*%
X122722000Y-57230000D03*
%TD*%
D16*
%TO.P,C1,1*%
%TO.N,Net-(C1-Pad1)*%
X122428000Y-81026000D03*
D14*
%TO.P,C1,2*%
%TO.N,Net-(C1-Pad2)*%
X120428000Y-81026000D03*
%TD*%
%TO.P,R7,1*%
%TO.N,Net-(C1-Pad1)*%
X110236000Y-81026000D03*
%TO.P,R7,2*%
%TO.N,GND_AUDIO*%
X102616000Y-81026000D03*
%TD*%
%TO.P,R3,1*%
%TO.N,/OUTC*%
X102616000Y-77978000D03*
%TO.P,R3,2*%
%TO.N,Net-(C1-Pad1)*%
X110236000Y-77978000D03*
%TD*%
%TO.P,R1,1*%
%TO.N,VCC*%
X106172000Y-92710000D03*
%TO.P,R1,2*%
%TO.N,Net-(R1-Pad2)*%
X106172000Y-100330000D03*
%TD*%
%TO.P,R9,1*%
%TO.N,Net-(C1-Pad2)*%
X122174000Y-74422000D03*
%TO.P,R9,2*%
%TO.N,/RIGHT*%
X114554000Y-74422000D03*
%TD*%
D16*
%TO.P,C2,1*%
%TO.N,Net-(C2-Pad1)*%
X116332000Y-81026000D03*
D14*
%TO.P,C2,2*%
%TO.N,Net-(C2-Pad2)*%
X114332000Y-81026000D03*
%TD*%
%TO.P,C8,1*%
%TO.N,VCC*%
X97830000Y-89916000D03*
%TO.P,C8,2*%
%TO.N,GND*%
X100330000Y-89916000D03*
%TD*%
%TO.P,C4,1*%
%TO.N,/RIGHT*%
X117074000Y-66802000D03*
%TO.P,C4,2*%
%TO.N,GND_AUDIO*%
X114574000Y-66802000D03*
%TD*%
D17*
%TO.P,SW1,1*%
%TO.N,/A4*%
X110744000Y-92710000D03*
D14*
%TO.P,SW1,2*%
%TO.N,Net-(R1-Pad2)*%
X110744000Y-100330000D03*
%TD*%
%TO.P,C9,1*%
%TO.N,VCC*%
X117876000Y-89916000D03*
%TO.P,C9,2*%
%TO.N,GND*%
X120376000Y-89916000D03*
%TD*%
%TO.P,R5,1*%
%TO.N,Net-(C1-Pad1)*%
X109728000Y-63754000D03*
%TO.P,R5,2*%
%TO.N,/OUTB*%
X109728000Y-56134000D03*
%TD*%
%TO.P,C5,1*%
%TO.N,VCC*%
X68326000Y-58654000D03*
%TO.P,C5,2*%
%TO.N,GND*%
X68326000Y-56154000D03*
%TD*%
D18*
%TO.P,RN3,1,R1.1*%
%TO.N,/D4*%
X68834000Y-85344000D03*
D14*
%TO.P,RN3,2,R1.2*%
%TO.N,Net-(RN1-R5)*%
X71374000Y-85344000D03*
%TO.P,RN3,3,R2.1*%
%TO.N,/D5*%
X73914000Y-85344000D03*
%TO.P,RN3,4,R2.2*%
%TO.N,Net-(RN1-R6)*%
X76454000Y-85344000D03*
%TO.P,RN3,5,R3.1*%
%TO.N,/D6*%
X78994000Y-85344000D03*
%TO.P,RN3,6,R3.2*%
%TO.N,Net-(RN1-R7)*%
X81534000Y-85344000D03*
%TO.P,RN3,7,R4.1*%
%TO.N,/D7*%
X84074000Y-85344000D03*
%TO.P,RN3,8,R4.2*%
%TO.N,Net-(RN1-R8)*%
X86614000Y-85344000D03*
%TD*%
%TO.P,R2,1*%
%TO.N,/OUTA*%
X110490000Y-66802000D03*
%TO.P,R2,2*%
%TO.N,Net-(C2-Pad1)*%
X110490000Y-74422000D03*
%TD*%
%TO.P,C7,1*%
%TO.N,VCC*%
X84094000Y-89916000D03*
%TO.P,C7,2*%
%TO.N,GND*%
X86594000Y-89916000D03*
%TD*%
%TO.P,R4,1*%
%TO.N,Net-(C2-Pad1)*%
X112776000Y-63754000D03*
%TO.P,R4,2*%
%TO.N,/OUTB*%
X112776000Y-56134000D03*
%TD*%
D12*
%TO.P,U3,1*%
%TO.N,/VALID*%
X89154000Y-92964000D03*
D13*
%TO.P,U3,2*%
%TO.N,/IOWR*%
X89154000Y-95504000D03*
%TO.P,U3,3*%
%TO.N,/BDIR*%
X89154000Y-98044000D03*
%TO.P,U3,4*%
X89154000Y-100584000D03*
%TO.P,U3,5*%
%TO.N,/A7*%
X89154000Y-103124000D03*
%TO.P,U3,6*%
%TO.N,Net-(U3-Pad6)*%
X89154000Y-105664000D03*
%TO.P,U3,7,GND*%
%TO.N,GND*%
X89154000Y-108204000D03*
%TO.P,U3,8*%
%TO.N,unconnected-(U3-Pad8)*%
X81534000Y-108204000D03*
%TO.P,U3,9*%
%TO.N,GND*%
X81534000Y-105664000D03*
%TO.P,U3,10*%
X81534000Y-103124000D03*
%TO.P,U3,11*%
%TO.N,Net-(U3-Pad11)*%
X81534000Y-100584000D03*
%TO.P,U3,12*%
%TO.N,/VALID*%
X81534000Y-98044000D03*
%TO.P,U3,13*%
%TO.N,/IORD*%
X81534000Y-95504000D03*
%TO.P,U3,14,VCC*%
%TO.N,VCC*%
X81534000Y-92964000D03*
%TD*%
D19*
%TO.P,U1,1,CH_C*%
%TO.N,/OUTC*%
X71374000Y-56134000D03*
D20*
%TO.P,U1,2,TEST1*%
%TO.N,unconnected-(U1-TEST1-Pad2)*%
X73914000Y-56134000D03*
%TO.P,U1,3,VCC*%
%TO.N,VCC*%
X76454000Y-56134000D03*
%TO.P,U1,4,CH_B*%
%TO.N,/OUTB*%
X78994000Y-56134000D03*
%TO.P,U1,5,CH_A*%
%TO.N,/OUTA*%
X81534000Y-56134000D03*
%TO.P,U1,6,GND*%
%TO.N,GND*%
X84074000Y-56134000D03*
%TO.P,U1,7,IOA7*%
%TO.N,/IOA7*%
X86614000Y-56134000D03*
%TO.P,U1,8,IOA6*%
%TO.N,/IOA6*%
X89154000Y-56134000D03*
%TO.P,U1,9,IOA5*%
%TO.N,/IOA5*%
X91694000Y-56134000D03*
%TO.P,U1,10,IOA4*%
%TO.N,/IOA4*%
X94234000Y-56134000D03*
%TO.P,U1,11,IOA3*%
%TO.N,/IOA3*%
X96774000Y-56134000D03*
%TO.P,U1,12,IOA2*%
%TO.N,/IOA2*%
X99314000Y-56134000D03*
%TO.P,U1,13,IOA1*%
%TO.N,/IOA1*%
X101854000Y-56134000D03*
%TO.P,U1,14,IOA0*%
%TO.N,/IOA0*%
X104394000Y-56134000D03*
%TO.P,U1,15,CLOCK*%
%TO.N,/PSGCLK*%
X104394000Y-71374000D03*
%TO.P,U1,16,~{RESET}*%
%TO.N,/~{RESET}*%
X101854000Y-71374000D03*
%TO.P,U1,17,A8*%
%TO.N,VCC*%
X99314000Y-71374000D03*
%TO.P,U1,18,BDIR*%
%TO.N,/BDIR*%
X96774000Y-71374000D03*
%TO.P,U1,19,BC2*%
%TO.N,VCC*%
X94234000Y-71374000D03*
%TO.P,U1,20,BC1*%
%TO.N,/BC1*%
X91694000Y-71374000D03*
%TO.P,U1,21,DA7*%
%TO.N,Net-(RN1-R8)*%
X89154000Y-71374000D03*
%TO.P,U1,22,DA6*%
%TO.N,Net-(RN1-R7)*%
X86614000Y-71374000D03*
%TO.P,U1,23,DA5*%
%TO.N,Net-(RN1-R6)*%
X84074000Y-71374000D03*
%TO.P,U1,24,DA4*%
%TO.N,Net-(RN1-R5)*%
X81534000Y-71374000D03*
%TO.P,U1,25,DA3*%
%TO.N,Net-(RN1-R4)*%
X78994000Y-71374000D03*
%TO.P,U1,26,DA2*%
%TO.N,Net-(RN1-R3)*%
X76454000Y-71374000D03*
%TO.P,U1,27,DA1*%
%TO.N,Net-(RN1-R2)*%
X73914000Y-71374000D03*
%TO.P,U1,28,DA0*%
%TO.N,Net-(RN1-R1)*%
X71374000Y-71374000D03*
%TD*%
D14*
%TO.P,R6,1*%
%TO.N,Net-(C2-Pad1)*%
X110236000Y-84074000D03*
%TO.P,R6,2*%
%TO.N,GND_AUDIO*%
X102616000Y-84074000D03*
%TD*%
D21*
%TO.P,I/O,1,Pin_1*%
%TO.N,VCC*%
X99314000Y-46482000D03*
D11*
%TO.P,I/O,2,Pin_2*%
%TO.N,/IOA0*%
X96774000Y-46482000D03*
%TO.P,I/O,3,Pin_3*%
%TO.N,/IOA1*%
X94234000Y-46482000D03*
%TO.P,I/O,4,Pin_4*%
%TO.N,/IOA2*%
X91694000Y-46482000D03*
%TO.P,I/O,5,Pin_5*%
%TO.N,/IOA3*%
X89154000Y-46482000D03*
%TO.P,I/O,6,Pin_6*%
%TO.N,/IOA4*%
X86614000Y-46482000D03*
%TO.P,I/O,7,Pin_7*%
%TO.N,/IOA5*%
X84074000Y-46482000D03*
%TO.P,I/O,8,Pin_8*%
%TO.N,/IOA6*%
X81534000Y-46482000D03*
%TO.P,I/O,9,Pin_9*%
%TO.N,/IOA7*%
X78994000Y-46482000D03*
%TO.P,I/O,10,Pin_10*%
%TO.N,GND*%
X76454000Y-46482000D03*
%TD*%
D12*
%TO.P,U4,1*%
%TO.N,/A3*%
X102870000Y-92964000D03*
D13*
%TO.P,U4,2*%
%TO.N,/A2*%
X102870000Y-95504000D03*
%TO.P,U4,3*%
%TO.N,Net-(U4-Pad12)*%
X102870000Y-98044000D03*
%TO.P,U4,4*%
%TO.N,/A0*%
X102870000Y-100584000D03*
%TO.P,U4,5*%
%TO.N,Net-(R1-Pad2)*%
X102870000Y-103124000D03*
%TO.P,U4,6*%
%TO.N,/VALID*%
X102870000Y-105664000D03*
%TO.P,U4,7,GND*%
%TO.N,GND*%
X102870000Y-108204000D03*
%TO.P,U4,8*%
%TO.N,unconnected-(U4-Pad8)*%
X95250000Y-108204000D03*
%TO.P,U4,9*%
%TO.N,GND*%
X95250000Y-105664000D03*
%TO.P,U4,10*%
X95250000Y-103124000D03*
%TO.P,U4,11*%
X95250000Y-100584000D03*
%TO.P,U4,12*%
%TO.N,Net-(U4-Pad12)*%
X95250000Y-98044000D03*
%TO.P,U4,13*%
%TO.N,/A1*%
X95250000Y-95504000D03*
%TO.P,U4,14,VCC*%
%TO.N,VCC*%
X95250000Y-92964000D03*
%TD*%
D18*
%TO.P,RN1,1,common*%
%TO.N,VCC*%
X68834000Y-75184000D03*
D14*
%TO.P,RN1,2,R1*%
%TO.N,Net-(RN1-R1)*%
X71374000Y-75184000D03*
%TO.P,RN1,3,R2*%
%TO.N,Net-(RN1-R2)*%
X73914000Y-75184000D03*
%TO.P,RN1,4,R3*%
%TO.N,Net-(RN1-R3)*%
X76454000Y-75184000D03*
%TO.P,RN1,5,R4*%
%TO.N,Net-(RN1-R4)*%
X78994000Y-75184000D03*
%TO.P,RN1,6,R5*%
%TO.N,Net-(RN1-R5)*%
X81534000Y-75184000D03*
%TO.P,RN1,7,R6*%
%TO.N,Net-(RN1-R6)*%
X84074000Y-75184000D03*
%TO.P,RN1,8,R7*%
%TO.N,Net-(RN1-R7)*%
X86614000Y-75184000D03*
%TO.P,RN1,9,R8*%
%TO.N,Net-(RN1-R8)*%
X89154000Y-75184000D03*
%TD*%
D18*
%TO.P,RN2,1,R1.1*%
%TO.N,/D0*%
X68834000Y-80264000D03*
D14*
%TO.P,RN2,2,R1.2*%
%TO.N,Net-(RN1-R1)*%
X71374000Y-80264000D03*
%TO.P,RN2,3,R2.1*%
%TO.N,/D1*%
X73914000Y-80264000D03*
%TO.P,RN2,4,R2.2*%
%TO.N,Net-(RN1-R2)*%
X76454000Y-80264000D03*
%TO.P,RN2,5,R3.1*%
%TO.N,/D2*%
X78994000Y-80264000D03*
%TO.P,RN2,6,R3.2*%
%TO.N,Net-(RN1-R3)*%
X81534000Y-80264000D03*
%TO.P,RN2,7,R4.1*%
%TO.N,/D3*%
X84074000Y-80264000D03*
%TO.P,RN2,8,R4.2*%
%TO.N,Net-(RN1-R4)*%
X86614000Y-80264000D03*
%TD*%
D22*
%TO.N,/D5*%
X77978000Y-116245300D03*
%TO.N,/A0*%
X84328000Y-99405100D03*
%TO.N,/D4*%
X91430500Y-87823700D03*
%TO.N,/A1*%
X90838000Y-116840000D03*
%TO.N,/D7*%
X72651700Y-87196600D03*
%TO.N,/A7*%
X87750900Y-110741200D03*
X111159300Y-110613200D03*
%TO.N,/~{IOREQ}*%
X120831100Y-107164900D03*
%TO.N,/OUTC*%
X102943600Y-68082600D03*
%TO.N,Net-(RN1-R5)*%
X77605700Y-81652300D03*
%TO.N,Net-(RN1-R4)*%
X82042000Y-78306700D03*
%TO.N,/BC1*%
X97251600Y-93347800D03*
%TO.N,/PSGCLK*%
X80775500Y-77650300D03*
X80039700Y-101854000D03*
%TO.N,/IORD*%
X109349500Y-109629500D03*
X83058000Y-110110400D03*
X108308600Y-103378000D03*
%TO.N,/VALID*%
X92567200Y-108204000D03*
X91874300Y-95497600D03*
%TD*%
D23*
%TO.N,/~{WR}*%
X108026200Y-120827800D02*
X107950000Y-120904000D01*
X108026200Y-116636800D02*
X108026200Y-120827800D01*
X114376200Y-110286800D02*
X108026200Y-116636800D01*
X125653800Y-98679000D02*
X125653800Y-108127800D01*
X125653800Y-108127800D02*
X123494800Y-110286800D01*
X125018800Y-98044000D02*
X125653800Y-98679000D01*
X123494800Y-110286800D02*
X114376200Y-110286800D01*
X122936000Y-98044000D02*
X125018800Y-98044000D01*
%TO.N,Net-(C1-Pad1)*%
X110236000Y-77978000D02*
X119380000Y-77978000D01*
X119380000Y-77978000D02*
X122428000Y-81026000D01*
%TO.N,Net-(C2-Pad1)*%
X113284000Y-84074000D02*
X110236000Y-84074000D01*
X116332000Y-81026000D02*
X113284000Y-84074000D01*
%TO.N,/LEFT*%
X122154000Y-66802000D02*
X122154000Y-64750000D01*
X122154000Y-64750000D02*
X119634000Y-62230000D01*
X119634000Y-62230000D02*
X117722000Y-62230000D01*
D24*
%TO.N,GND_AUDIO*%
X100584000Y-81026000D02*
X102616000Y-81026000D01*
X108224000Y-73152000D02*
X114574000Y-66802000D01*
X118306700Y-65454700D02*
X119654000Y-66802000D01*
X104854800Y-73152000D02*
X108224000Y-73152000D01*
X115921300Y-65454700D02*
X118306700Y-65454700D01*
X96774000Y-77216000D02*
X100584000Y-81026000D01*
X100790800Y-77216000D02*
X104854800Y-73152000D01*
X114574000Y-66802000D02*
X115921300Y-65454700D01*
X96774000Y-77216000D02*
X100790800Y-77216000D01*
D25*
%TO.N,VCC*%
X67564000Y-92964000D02*
X69515700Y-92964000D01*
X67564000Y-103124000D02*
X70866000Y-103124000D01*
X85988200Y-92964000D02*
X87549600Y-91402600D01*
X70866000Y-103124000D02*
X71882000Y-104140000D01*
X95250000Y-92496000D02*
X95250000Y-92964000D01*
X67564000Y-103124000D02*
X67564000Y-100584000D01*
X117876000Y-89916000D02*
X108966000Y-89916000D01*
X67310000Y-75184000D02*
X66802000Y-75692000D01*
X76866300Y-92964000D02*
X81534000Y-92964000D01*
X94156600Y-91402600D02*
X95250000Y-92496000D01*
X71882000Y-104140000D02*
X71882000Y-121920000D01*
X71882000Y-121920000D02*
X70612000Y-123190000D01*
X67564000Y-90170000D02*
X67818000Y-89916000D01*
X67310000Y-124714000D02*
X67310000Y-125491000D01*
X70612000Y-123190000D02*
X68834000Y-123190000D01*
X66802000Y-88900000D02*
X67818000Y-89916000D01*
X67564000Y-100584000D02*
X67564000Y-98044000D01*
X97830000Y-89916000D02*
X95250000Y-92496000D01*
X76866300Y-92964000D02*
X69515700Y-92964000D01*
X75184000Y-92964000D02*
X76866300Y-92964000D01*
X68834000Y-75184000D02*
X67310000Y-75184000D01*
X67818000Y-89916000D02*
X70144000Y-89916000D01*
X108966000Y-89916000D02*
X106172000Y-92710000D01*
X67564000Y-92964000D02*
X67564000Y-90170000D01*
X87549600Y-91402600D02*
X94156600Y-91402600D01*
X67564000Y-95504000D02*
X67564000Y-92964000D01*
X67564000Y-98044000D02*
X67564000Y-95504000D01*
X75184000Y-100584000D02*
X67564000Y-100584000D01*
X81534000Y-92964000D02*
X85988200Y-92964000D01*
X66802000Y-75692000D02*
X66802000Y-88900000D01*
X68834000Y-123190000D02*
X67310000Y-124714000D01*
D24*
%TO.N,GND*%
X79832300Y-105664000D02*
X77292300Y-108204000D01*
X72644000Y-89916000D02*
X73964300Y-91236300D01*
X100550200Y-88612200D02*
X100330000Y-88832400D01*
X81534000Y-105664000D02*
X79832300Y-105664000D01*
X120376000Y-89916000D02*
X119072200Y-88612200D01*
X100296200Y-88612200D02*
X96774000Y-85090000D01*
X77292300Y-108204000D02*
X75438000Y-108204000D01*
X89154000Y-108204000D02*
X87452300Y-108204000D01*
X73964300Y-91236300D02*
X85273700Y-91236300D01*
X96774000Y-84836000D02*
X91694000Y-89916000D01*
X73152000Y-124206000D02*
X74930000Y-125984000D01*
X73152000Y-118872000D02*
X73152000Y-124206000D01*
X89154000Y-108204000D02*
X90855700Y-108204000D01*
X119072200Y-88612200D02*
X100550200Y-88612200D01*
X84912300Y-105664000D02*
X87452300Y-108204000D01*
X99808800Y-109563500D02*
X92215200Y-109563500D01*
X91694000Y-89916000D02*
X86594000Y-89916000D01*
X102870000Y-108204000D02*
X101168300Y-108204000D01*
X101168300Y-108204000D02*
X99808800Y-109563500D01*
X81534000Y-105664000D02*
X84912300Y-105664000D01*
X75184000Y-116840000D02*
X73152000Y-118872000D01*
X93395700Y-105664000D02*
X90855700Y-108204000D01*
X95250000Y-105664000D02*
X93395700Y-105664000D01*
X77470000Y-125984000D02*
X74930000Y-125984000D01*
X100330000Y-88832400D02*
X100330000Y-89916000D01*
X75438000Y-108204000D02*
X75184000Y-108458000D01*
X92215200Y-109563500D02*
X90855700Y-108204000D01*
X96774000Y-85090000D02*
X96774000Y-84836000D01*
X100550200Y-88612200D02*
X100296200Y-88612200D01*
X85273700Y-91236300D02*
X86594000Y-89916000D01*
X75184000Y-108458000D02*
X75184000Y-116840000D01*
D23*
%TO.N,/D5*%
X85090000Y-118872000D02*
X82463300Y-116245300D01*
X85090000Y-120904000D02*
X85090000Y-118872000D01*
X82463300Y-116245300D02*
X77978000Y-116245300D01*
%TO.N,/A0*%
X100129600Y-99370300D02*
X101343300Y-100584000D01*
X84328000Y-99405100D02*
X84362800Y-99370300D01*
X101343300Y-100584000D02*
X102870000Y-100584000D01*
X84362800Y-99370300D02*
X100129600Y-99370300D01*
%TO.N,/D4*%
X69960700Y-85625700D02*
X69960700Y-85344000D01*
X72158700Y-87823700D02*
X69960700Y-85625700D01*
X68834000Y-85344000D02*
X69960700Y-85344000D01*
X91430500Y-87823700D02*
X72158700Y-87823700D01*
%TO.N,/A1*%
X88900000Y-120440800D02*
X88899900Y-120440900D01*
X90838000Y-116840000D02*
X89662000Y-116840000D01*
X89662000Y-116840000D02*
X88900000Y-117602000D01*
X88899900Y-120440900D02*
X88899900Y-122174100D01*
X88900000Y-117602000D02*
X88900000Y-120440800D01*
X88899900Y-122174100D02*
X85090000Y-125984000D01*
%TO.N,/D7*%
X82221400Y-87196600D02*
X84074000Y-85344000D01*
X72651700Y-87196600D02*
X82221400Y-87196600D01*
%TO.N,/A7*%
X111031300Y-110741200D02*
X111159300Y-110613200D01*
X87750900Y-110741200D02*
X111031300Y-110741200D01*
%TO.N,/~{IOREQ}*%
X102870000Y-120904000D02*
X115316000Y-108458000D01*
X115316000Y-108458000D02*
X115316000Y-108204000D01*
X115316000Y-108204000D02*
X119792000Y-108204000D01*
X119792000Y-108204000D02*
X120831100Y-107164900D01*
%TO.N,/IOA7*%
X86614000Y-54864000D02*
X86614000Y-56134000D01*
X78994000Y-46482000D02*
X78994000Y-47244000D01*
X78994000Y-47244000D02*
X86614000Y-54864000D01*
%TO.N,/IOA5*%
X91694000Y-55626000D02*
X84074000Y-48006000D01*
X91694000Y-56134000D02*
X91694000Y-55626000D01*
X84074000Y-48006000D02*
X84074000Y-46482000D01*
%TO.N,/IOA6*%
X81534000Y-47498000D02*
X81534000Y-46482000D01*
X89154000Y-56134000D02*
X89154000Y-55118000D01*
X89154000Y-55118000D02*
X81534000Y-47498000D01*
%TO.N,/IOA1*%
X94234000Y-47498000D02*
X101854000Y-55118000D01*
X94234000Y-46482000D02*
X94234000Y-47498000D01*
X101854000Y-55118000D02*
X101854000Y-56134000D01*
%TO.N,/IOA4*%
X94234000Y-56134000D02*
X94234000Y-55372000D01*
X86614000Y-47752000D02*
X86614000Y-46482000D01*
X94234000Y-55372000D02*
X86614000Y-47752000D01*
%TO.N,/IOA3*%
X96774000Y-55372000D02*
X89154000Y-47752000D01*
X89154000Y-47752000D02*
X89154000Y-46482000D01*
X96774000Y-56134000D02*
X96774000Y-55372000D01*
%TO.N,/IOA2*%
X99314000Y-55372000D02*
X99314000Y-56134000D01*
X91694000Y-46482000D02*
X91694000Y-47752000D01*
X91694000Y-47752000D02*
X99314000Y-55372000D01*
%TO.N,/IOA0*%
X96774000Y-46482000D02*
X96774000Y-47244000D01*
X96774000Y-47244000D02*
X104394000Y-54864000D01*
X104394000Y-54864000D02*
X104394000Y-56134000D01*
%TO.N,Net-(R1-Pad2)*%
X106172000Y-100330000D02*
X110744000Y-100330000D01*
X106172000Y-101348700D02*
X106172000Y-100330000D01*
X102870000Y-103124000D02*
X104396700Y-103124000D01*
X104396700Y-103124000D02*
X106172000Y-101348700D01*
%TO.N,/OUTA*%
X81534000Y-65532000D02*
X82804000Y-66802000D01*
X81534000Y-56134000D02*
X81534000Y-65532000D01*
X82804000Y-66802000D02*
X110490000Y-66802000D01*
%TO.N,/OUTC*%
X102943600Y-68082600D02*
X73670600Y-68082600D01*
X71374000Y-65786000D02*
X71374000Y-56134000D01*
X73670600Y-68082600D02*
X71374000Y-65786000D01*
%TO.N,/OUTB*%
X78994000Y-56134000D02*
X78994000Y-55057200D01*
%TO.N,Net-(RN1-R5)*%
X71374000Y-85344000D02*
X71374000Y-83756500D01*
X71374000Y-83756500D02*
X72580500Y-82550000D01*
X76708000Y-82550000D02*
X77605700Y-81652300D01*
X72580500Y-82550000D02*
X76708000Y-82550000D01*
%TO.N,Net-(RN1-R4)*%
X84656700Y-78306700D02*
X86614000Y-80264000D01*
X82042000Y-78306700D02*
X84656700Y-78306700D01*
%TO.N,Net-(RN1-R3)*%
X76454000Y-75184000D02*
X81534000Y-80264000D01*
%TO.N,Net-(RN1-R6)*%
X80120900Y-77361100D02*
X80693700Y-76788300D01*
X80120900Y-78075200D02*
X80120900Y-77361100D01*
X82804000Y-82042000D02*
X82804000Y-79502000D01*
X82469700Y-76788300D02*
X84074000Y-75184000D01*
X82804000Y-79502000D02*
X82330800Y-79028800D01*
X81074500Y-79028800D02*
X80120900Y-78075200D01*
X82186800Y-82659200D02*
X82804000Y-82042000D01*
X76418400Y-83820000D02*
X77579200Y-82659200D01*
X77579200Y-82659200D02*
X82186800Y-82659200D01*
X76454000Y-85344000D02*
X76418400Y-85308400D01*
X82330800Y-79028800D02*
X81074500Y-79028800D01*
X76418400Y-85308400D02*
X76418400Y-83820000D01*
X80693700Y-76788300D02*
X82469700Y-76788300D01*
%TO.N,/BC1*%
X98219400Y-94315600D02*
X112600900Y-94315600D01*
X115316000Y-95504000D02*
X113789300Y-95504000D01*
X97251600Y-93347800D02*
X98219400Y-94315600D01*
X112600900Y-94315600D02*
X113789300Y-95504000D01*
%TO.N,/PSGCLK*%
X104394000Y-71374000D02*
X101501100Y-74266900D01*
X75184000Y-103124000D02*
X76710700Y-103124000D01*
X101501100Y-74266900D02*
X96876300Y-74266900D01*
X80039700Y-101854000D02*
X77980700Y-101854000D01*
X77980700Y-101854000D02*
X76710700Y-103124000D01*
X93492900Y-77650300D02*
X80775500Y-77650300D01*
X96876300Y-74266900D02*
X93492900Y-77650300D01*
%TO.N,/IORD*%
X108562600Y-103124000D02*
X115316000Y-103124000D01*
X88137000Y-110219300D02*
X108759700Y-110219300D01*
X108759700Y-110219300D02*
X109349500Y-109629500D01*
X83058000Y-110110400D02*
X88028100Y-110110400D01*
X88028100Y-110110400D02*
X88137000Y-110219300D01*
X108308600Y-103378000D02*
X108562600Y-103124000D01*
%TO.N,/VALID*%
X92567200Y-108204000D02*
X93801900Y-106969300D01*
X83060700Y-98044000D02*
X87162700Y-93942000D01*
X100038000Y-106969300D02*
X101343300Y-105664000D01*
X102870000Y-105664000D02*
X101343300Y-105664000D01*
X89154000Y-93942000D02*
X90318700Y-93942000D01*
X90318700Y-93942000D02*
X91874300Y-95497600D01*
X93801900Y-106969300D02*
X100038000Y-106969300D01*
X87162700Y-93942000D02*
X89154000Y-93942000D01*
X89154000Y-93942000D02*
X89154000Y-92964000D01*
X81534000Y-98044000D02*
X83060700Y-98044000D01*
%TO.N,Net-(U3-Pad6)*%
X91950700Y-104394000D02*
X120139300Y-104394000D01*
X90680700Y-105664000D02*
X91950700Y-104394000D01*
X120139300Y-104394000D02*
X121409300Y-103124000D01*
X89154000Y-105664000D02*
X90680700Y-105664000D01*
X121409300Y-103124000D02*
X122936000Y-103124000D01*
%TO.N,Net-(U3-Pad11)*%
X103686400Y-101783300D02*
X84260000Y-101783300D01*
X122936000Y-105664000D02*
X124206000Y-105664000D01*
X124206000Y-101854000D02*
X113873000Y-101854000D01*
X113873000Y-101854000D02*
X111212300Y-99193300D01*
X124968000Y-104902000D02*
X124968000Y-102616000D01*
X104564000Y-100332300D02*
X104564000Y-100905700D01*
X124206000Y-105664000D02*
X124968000Y-104902000D01*
X104564000Y-100905700D02*
X103686400Y-101783300D01*
X84260000Y-101783300D02*
X83060700Y-100584000D01*
X83060700Y-100584000D02*
X81534000Y-100584000D01*
X105703000Y-99193300D02*
X104564000Y-100332300D01*
X111212300Y-99193300D02*
X105703000Y-99193300D01*
X124968000Y-102616000D02*
X124206000Y-101854000D01*
%TO.N,/IOWR*%
X119205500Y-96694500D02*
X91871200Y-96694500D01*
X89154000Y-95504000D02*
X90680700Y-95504000D01*
X122936000Y-92964000D02*
X119205500Y-96694500D01*
X91871200Y-96694500D02*
X90680700Y-95504000D01*
%TO.N,Net-(U4-Pad12)*%
X102870000Y-98044000D02*
X95250000Y-98044000D01*
%TO.N,Net-(U5-Pad11)*%
X122936000Y-100584000D02*
X115316000Y-100584000D01*
%TO.N,/OUTB*%
X78994000Y-55057200D02*
X79949200Y-54102000D01*
X79949200Y-54102000D02*
X84175500Y-54102000D01*
X84175500Y-54102000D02*
X85428300Y-55354800D01*
X85428300Y-55354800D02*
X85428300Y-57742300D01*
X85428300Y-57742300D02*
X86360000Y-58674000D01*
X86360000Y-58674000D02*
X105664000Y-58674000D01*
X105664000Y-58674000D02*
X108204000Y-56134000D01*
X108204000Y-56134000D02*
X112776000Y-56134000D01*
%TD*%
M02*
