%TF.GenerationSoftware,KiCad,Pcbnew,9.0.4*%
%TF.CreationDate,2025-09-25T21:38:56+01:00*%
%TF.ProjectId,ay-zonic-core,61792d7a-6f6e-4696-932d-636f72652e6b,2.0*%
%TF.SameCoordinates,Original*%
%TF.FileFunction,Legend,Top*%
%TF.FilePolarity,Positive*%
%FSLAX46Y46*%
G04 Gerber Fmt 4.6, Leading zero omitted, Abs format (unit mm)*
G04 Created by KiCad (PCBNEW 9.0.4) date 2025-09-25 21:38:56*
%MOMM*%
%LPD*%
G01*
G04 APERTURE LIST*
%ADD10C,0.100000*%
%ADD11C,0.508000*%
G04 APERTURE END LIST*
D10*
X66804265Y-113666732D02*
X67280455Y-113666732D01*
X66709027Y-113952447D02*
X67042360Y-112952447D01*
X67042360Y-112952447D02*
X67375693Y-113952447D01*
X67899503Y-113476256D02*
X67899503Y-113952447D01*
X67566170Y-112952447D02*
X67899503Y-113476256D01*
X67899503Y-113476256D02*
X68232836Y-112952447D01*
X68566170Y-113571494D02*
X69328075Y-113571494D01*
X69709027Y-112952447D02*
X70375693Y-112952447D01*
X70375693Y-112952447D02*
X69709027Y-113952447D01*
X69709027Y-113952447D02*
X70375693Y-113952447D01*
X70947122Y-112952447D02*
X71137598Y-112952447D01*
X71137598Y-112952447D02*
X71232836Y-113000066D01*
X71232836Y-113000066D02*
X71328074Y-113095304D01*
X71328074Y-113095304D02*
X71375693Y-113285780D01*
X71375693Y-113285780D02*
X71375693Y-113619113D01*
X71375693Y-113619113D02*
X71328074Y-113809589D01*
X71328074Y-113809589D02*
X71232836Y-113904828D01*
X71232836Y-113904828D02*
X71137598Y-113952447D01*
X71137598Y-113952447D02*
X70947122Y-113952447D01*
X70947122Y-113952447D02*
X70851884Y-113904828D01*
X70851884Y-113904828D02*
X70756646Y-113809589D01*
X70756646Y-113809589D02*
X70709027Y-113619113D01*
X70709027Y-113619113D02*
X70709027Y-113285780D01*
X70709027Y-113285780D02*
X70756646Y-113095304D01*
X70756646Y-113095304D02*
X70851884Y-113000066D01*
X70851884Y-113000066D02*
X70947122Y-112952447D01*
X71804265Y-113952447D02*
X71804265Y-112952447D01*
X71804265Y-112952447D02*
X72375693Y-113952447D01*
X72375693Y-113952447D02*
X72375693Y-112952447D01*
X72851884Y-113952447D02*
X72851884Y-112952447D01*
X73899502Y-113857208D02*
X73851883Y-113904828D01*
X73851883Y-113904828D02*
X73709026Y-113952447D01*
X73709026Y-113952447D02*
X73613788Y-113952447D01*
X73613788Y-113952447D02*
X73470931Y-113904828D01*
X73470931Y-113904828D02*
X73375693Y-113809589D01*
X73375693Y-113809589D02*
X73328074Y-113714351D01*
X73328074Y-113714351D02*
X73280455Y-113523875D01*
X73280455Y-113523875D02*
X73280455Y-113381018D01*
X73280455Y-113381018D02*
X73328074Y-113190542D01*
X73328074Y-113190542D02*
X73375693Y-113095304D01*
X73375693Y-113095304D02*
X73470931Y-113000066D01*
X73470931Y-113000066D02*
X73613788Y-112952447D01*
X73613788Y-112952447D02*
X73709026Y-112952447D01*
X73709026Y-112952447D02*
X73851883Y-113000066D01*
X73851883Y-113000066D02*
X73899502Y-113047685D01*
X74328074Y-113571494D02*
X75089979Y-113571494D01*
X76137597Y-113857208D02*
X76089978Y-113904828D01*
X76089978Y-113904828D02*
X75947121Y-113952447D01*
X75947121Y-113952447D02*
X75851883Y-113952447D01*
X75851883Y-113952447D02*
X75709026Y-113904828D01*
X75709026Y-113904828D02*
X75613788Y-113809589D01*
X75613788Y-113809589D02*
X75566169Y-113714351D01*
X75566169Y-113714351D02*
X75518550Y-113523875D01*
X75518550Y-113523875D02*
X75518550Y-113381018D01*
X75518550Y-113381018D02*
X75566169Y-113190542D01*
X75566169Y-113190542D02*
X75613788Y-113095304D01*
X75613788Y-113095304D02*
X75709026Y-113000066D01*
X75709026Y-113000066D02*
X75851883Y-112952447D01*
X75851883Y-112952447D02*
X75947121Y-112952447D01*
X75947121Y-112952447D02*
X76089978Y-113000066D01*
X76089978Y-113000066D02*
X76137597Y-113047685D01*
X76709026Y-113952447D02*
X76613788Y-113904828D01*
X76613788Y-113904828D02*
X76566169Y-113857208D01*
X76566169Y-113857208D02*
X76518550Y-113761970D01*
X76518550Y-113761970D02*
X76518550Y-113476256D01*
X76518550Y-113476256D02*
X76566169Y-113381018D01*
X76566169Y-113381018D02*
X76613788Y-113333399D01*
X76613788Y-113333399D02*
X76709026Y-113285780D01*
X76709026Y-113285780D02*
X76851883Y-113285780D01*
X76851883Y-113285780D02*
X76947121Y-113333399D01*
X76947121Y-113333399D02*
X76994740Y-113381018D01*
X76994740Y-113381018D02*
X77042359Y-113476256D01*
X77042359Y-113476256D02*
X77042359Y-113761970D01*
X77042359Y-113761970D02*
X76994740Y-113857208D01*
X76994740Y-113857208D02*
X76947121Y-113904828D01*
X76947121Y-113904828D02*
X76851883Y-113952447D01*
X76851883Y-113952447D02*
X76709026Y-113952447D01*
X77470931Y-113952447D02*
X77470931Y-113285780D01*
X77470931Y-113476256D02*
X77518550Y-113381018D01*
X77518550Y-113381018D02*
X77566169Y-113333399D01*
X77566169Y-113333399D02*
X77661407Y-113285780D01*
X77661407Y-113285780D02*
X77756645Y-113285780D01*
X78470931Y-113904828D02*
X78375693Y-113952447D01*
X78375693Y-113952447D02*
X78185217Y-113952447D01*
X78185217Y-113952447D02*
X78089979Y-113904828D01*
X78089979Y-113904828D02*
X78042360Y-113809589D01*
X78042360Y-113809589D02*
X78042360Y-113428637D01*
X78042360Y-113428637D02*
X78089979Y-113333399D01*
X78089979Y-113333399D02*
X78185217Y-113285780D01*
X78185217Y-113285780D02*
X78375693Y-113285780D01*
X78375693Y-113285780D02*
X78470931Y-113333399D01*
X78470931Y-113333399D02*
X78518550Y-113428637D01*
X78518550Y-113428637D02*
X78518550Y-113523875D01*
X78518550Y-113523875D02*
X78042360Y-113619113D01*
X80280455Y-113952447D02*
X79947122Y-113476256D01*
X79709027Y-113952447D02*
X79709027Y-112952447D01*
X79709027Y-112952447D02*
X80089979Y-112952447D01*
X80089979Y-112952447D02*
X80185217Y-113000066D01*
X80185217Y-113000066D02*
X80232836Y-113047685D01*
X80232836Y-113047685D02*
X80280455Y-113142923D01*
X80280455Y-113142923D02*
X80280455Y-113285780D01*
X80280455Y-113285780D02*
X80232836Y-113381018D01*
X80232836Y-113381018D02*
X80185217Y-113428637D01*
X80185217Y-113428637D02*
X80089979Y-113476256D01*
X80089979Y-113476256D02*
X79709027Y-113476256D01*
X81089979Y-113904828D02*
X80994741Y-113952447D01*
X80994741Y-113952447D02*
X80804265Y-113952447D01*
X80804265Y-113952447D02*
X80709027Y-113904828D01*
X80709027Y-113904828D02*
X80661408Y-113809589D01*
X80661408Y-113809589D02*
X80661408Y-113428637D01*
X80661408Y-113428637D02*
X80709027Y-113333399D01*
X80709027Y-113333399D02*
X80804265Y-113285780D01*
X80804265Y-113285780D02*
X80994741Y-113285780D01*
X80994741Y-113285780D02*
X81089979Y-113333399D01*
X81089979Y-113333399D02*
X81137598Y-113428637D01*
X81137598Y-113428637D02*
X81137598Y-113523875D01*
X81137598Y-113523875D02*
X80661408Y-113619113D01*
X81470932Y-113285780D02*
X81709027Y-113952447D01*
X81709027Y-113952447D02*
X81947122Y-113285780D01*
X82280456Y-113047685D02*
X82328075Y-113000066D01*
X82328075Y-113000066D02*
X82423313Y-112952447D01*
X82423313Y-112952447D02*
X82661408Y-112952447D01*
X82661408Y-112952447D02*
X82756646Y-113000066D01*
X82756646Y-113000066D02*
X82804265Y-113047685D01*
X82804265Y-113047685D02*
X82851884Y-113142923D01*
X82851884Y-113142923D02*
X82851884Y-113238161D01*
X82851884Y-113238161D02*
X82804265Y-113381018D01*
X82804265Y-113381018D02*
X82232837Y-113952447D01*
X82232837Y-113952447D02*
X82851884Y-113952447D01*
X83280456Y-113857208D02*
X83328075Y-113904828D01*
X83328075Y-113904828D02*
X83280456Y-113952447D01*
X83280456Y-113952447D02*
X83232837Y-113904828D01*
X83232837Y-113904828D02*
X83280456Y-113857208D01*
X83280456Y-113857208D02*
X83280456Y-113952447D01*
X83947122Y-112952447D02*
X84042360Y-112952447D01*
X84042360Y-112952447D02*
X84137598Y-113000066D01*
X84137598Y-113000066D02*
X84185217Y-113047685D01*
X84185217Y-113047685D02*
X84232836Y-113142923D01*
X84232836Y-113142923D02*
X84280455Y-113333399D01*
X84280455Y-113333399D02*
X84280455Y-113571494D01*
X84280455Y-113571494D02*
X84232836Y-113761970D01*
X84232836Y-113761970D02*
X84185217Y-113857208D01*
X84185217Y-113857208D02*
X84137598Y-113904828D01*
X84137598Y-113904828D02*
X84042360Y-113952447D01*
X84042360Y-113952447D02*
X83947122Y-113952447D01*
X83947122Y-113952447D02*
X83851884Y-113904828D01*
X83851884Y-113904828D02*
X83804265Y-113857208D01*
X83804265Y-113857208D02*
X83756646Y-113761970D01*
X83756646Y-113761970D02*
X83709027Y-113571494D01*
X83709027Y-113571494D02*
X83709027Y-113333399D01*
X83709027Y-113333399D02*
X83756646Y-113142923D01*
X83756646Y-113142923D02*
X83804265Y-113047685D01*
X83804265Y-113047685D02*
X83851884Y-113000066D01*
X83851884Y-113000066D02*
X83947122Y-112952447D01*
X66804265Y-114657629D02*
X66851884Y-114610010D01*
X66851884Y-114610010D02*
X66947122Y-114562391D01*
X66947122Y-114562391D02*
X67185217Y-114562391D01*
X67185217Y-114562391D02*
X67280455Y-114610010D01*
X67280455Y-114610010D02*
X67328074Y-114657629D01*
X67328074Y-114657629D02*
X67375693Y-114752867D01*
X67375693Y-114752867D02*
X67375693Y-114848105D01*
X67375693Y-114848105D02*
X67328074Y-114990962D01*
X67328074Y-114990962D02*
X66756646Y-115562391D01*
X66756646Y-115562391D02*
X67375693Y-115562391D01*
X67994741Y-114562391D02*
X68089979Y-114562391D01*
X68089979Y-114562391D02*
X68185217Y-114610010D01*
X68185217Y-114610010D02*
X68232836Y-114657629D01*
X68232836Y-114657629D02*
X68280455Y-114752867D01*
X68280455Y-114752867D02*
X68328074Y-114943343D01*
X68328074Y-114943343D02*
X68328074Y-115181438D01*
X68328074Y-115181438D02*
X68280455Y-115371914D01*
X68280455Y-115371914D02*
X68232836Y-115467152D01*
X68232836Y-115467152D02*
X68185217Y-115514772D01*
X68185217Y-115514772D02*
X68089979Y-115562391D01*
X68089979Y-115562391D02*
X67994741Y-115562391D01*
X67994741Y-115562391D02*
X67899503Y-115514772D01*
X67899503Y-115514772D02*
X67851884Y-115467152D01*
X67851884Y-115467152D02*
X67804265Y-115371914D01*
X67804265Y-115371914D02*
X67756646Y-115181438D01*
X67756646Y-115181438D02*
X67756646Y-114943343D01*
X67756646Y-114943343D02*
X67804265Y-114752867D01*
X67804265Y-114752867D02*
X67851884Y-114657629D01*
X67851884Y-114657629D02*
X67899503Y-114610010D01*
X67899503Y-114610010D02*
X67994741Y-114562391D01*
X68709027Y-114657629D02*
X68756646Y-114610010D01*
X68756646Y-114610010D02*
X68851884Y-114562391D01*
X68851884Y-114562391D02*
X69089979Y-114562391D01*
X69089979Y-114562391D02*
X69185217Y-114610010D01*
X69185217Y-114610010D02*
X69232836Y-114657629D01*
X69232836Y-114657629D02*
X69280455Y-114752867D01*
X69280455Y-114752867D02*
X69280455Y-114848105D01*
X69280455Y-114848105D02*
X69232836Y-114990962D01*
X69232836Y-114990962D02*
X68661408Y-115562391D01*
X68661408Y-115562391D02*
X69280455Y-115562391D01*
X70185217Y-114562391D02*
X69709027Y-114562391D01*
X69709027Y-114562391D02*
X69661408Y-115038581D01*
X69661408Y-115038581D02*
X69709027Y-114990962D01*
X69709027Y-114990962D02*
X69804265Y-114943343D01*
X69804265Y-114943343D02*
X70042360Y-114943343D01*
X70042360Y-114943343D02*
X70137598Y-114990962D01*
X70137598Y-114990962D02*
X70185217Y-115038581D01*
X70185217Y-115038581D02*
X70232836Y-115133819D01*
X70232836Y-115133819D02*
X70232836Y-115371914D01*
X70232836Y-115371914D02*
X70185217Y-115467152D01*
X70185217Y-115467152D02*
X70137598Y-115514772D01*
X70137598Y-115514772D02*
X70042360Y-115562391D01*
X70042360Y-115562391D02*
X69804265Y-115562391D01*
X69804265Y-115562391D02*
X69709027Y-115514772D01*
X69709027Y-115514772D02*
X69661408Y-115467152D01*
X71709027Y-114562391D02*
X71709027Y-115276676D01*
X71709027Y-115276676D02*
X71661408Y-115419533D01*
X71661408Y-115419533D02*
X71566170Y-115514772D01*
X71566170Y-115514772D02*
X71423313Y-115562391D01*
X71423313Y-115562391D02*
X71328075Y-115562391D01*
X72185218Y-115467152D02*
X72232837Y-115514772D01*
X72232837Y-115514772D02*
X72185218Y-115562391D01*
X72185218Y-115562391D02*
X72137599Y-115514772D01*
X72137599Y-115514772D02*
X72185218Y-115467152D01*
X72185218Y-115467152D02*
X72185218Y-115562391D01*
X73185217Y-114610010D02*
X73089979Y-114562391D01*
X73089979Y-114562391D02*
X72947122Y-114562391D01*
X72947122Y-114562391D02*
X72804265Y-114610010D01*
X72804265Y-114610010D02*
X72709027Y-114705248D01*
X72709027Y-114705248D02*
X72661408Y-114800486D01*
X72661408Y-114800486D02*
X72613789Y-114990962D01*
X72613789Y-114990962D02*
X72613789Y-115133819D01*
X72613789Y-115133819D02*
X72661408Y-115324295D01*
X72661408Y-115324295D02*
X72709027Y-115419533D01*
X72709027Y-115419533D02*
X72804265Y-115514772D01*
X72804265Y-115514772D02*
X72947122Y-115562391D01*
X72947122Y-115562391D02*
X73042360Y-115562391D01*
X73042360Y-115562391D02*
X73185217Y-115514772D01*
X73185217Y-115514772D02*
X73232836Y-115467152D01*
X73232836Y-115467152D02*
X73232836Y-115133819D01*
X73232836Y-115133819D02*
X73042360Y-115133819D01*
X73661408Y-115562391D02*
X73661408Y-114895724D01*
X73661408Y-115086200D02*
X73709027Y-114990962D01*
X73709027Y-114990962D02*
X73756646Y-114943343D01*
X73756646Y-114943343D02*
X73851884Y-114895724D01*
X73851884Y-114895724D02*
X73947122Y-114895724D01*
X74709027Y-115562391D02*
X74709027Y-115038581D01*
X74709027Y-115038581D02*
X74661408Y-114943343D01*
X74661408Y-114943343D02*
X74566170Y-114895724D01*
X74566170Y-114895724D02*
X74375694Y-114895724D01*
X74375694Y-114895724D02*
X74280456Y-114943343D01*
X74709027Y-115514772D02*
X74613789Y-115562391D01*
X74613789Y-115562391D02*
X74375694Y-115562391D01*
X74375694Y-115562391D02*
X74280456Y-115514772D01*
X74280456Y-115514772D02*
X74232837Y-115419533D01*
X74232837Y-115419533D02*
X74232837Y-115324295D01*
X74232837Y-115324295D02*
X74280456Y-115229057D01*
X74280456Y-115229057D02*
X74375694Y-115181438D01*
X74375694Y-115181438D02*
X74613789Y-115181438D01*
X74613789Y-115181438D02*
X74709027Y-115133819D01*
X75042361Y-114895724D02*
X75423313Y-114895724D01*
X75185218Y-114562391D02*
X75185218Y-115419533D01*
X75185218Y-115419533D02*
X75232837Y-115514772D01*
X75232837Y-115514772D02*
X75328075Y-115562391D01*
X75328075Y-115562391D02*
X75423313Y-115562391D01*
X75613790Y-114895724D02*
X75994742Y-114895724D01*
X75756647Y-114562391D02*
X75756647Y-115419533D01*
X75756647Y-115419533D02*
X75804266Y-115514772D01*
X75804266Y-115514772D02*
X75899504Y-115562391D01*
X75899504Y-115562391D02*
X75994742Y-115562391D01*
X76470933Y-115562391D02*
X76375695Y-115514772D01*
X76375695Y-115514772D02*
X76328076Y-115467152D01*
X76328076Y-115467152D02*
X76280457Y-115371914D01*
X76280457Y-115371914D02*
X76280457Y-115086200D01*
X76280457Y-115086200D02*
X76328076Y-114990962D01*
X76328076Y-114990962D02*
X76375695Y-114943343D01*
X76375695Y-114943343D02*
X76470933Y-114895724D01*
X76470933Y-114895724D02*
X76613790Y-114895724D01*
X76613790Y-114895724D02*
X76709028Y-114943343D01*
X76709028Y-114943343D02*
X76756647Y-114990962D01*
X76756647Y-114990962D02*
X76804266Y-115086200D01*
X76804266Y-115086200D02*
X76804266Y-115371914D01*
X76804266Y-115371914D02*
X76756647Y-115467152D01*
X76756647Y-115467152D02*
X76709028Y-115514772D01*
X76709028Y-115514772D02*
X76613790Y-115562391D01*
X76613790Y-115562391D02*
X76470933Y-115562391D01*
X77232838Y-114895724D02*
X77232838Y-115562391D01*
X77232838Y-114990962D02*
X77280457Y-114943343D01*
X77280457Y-114943343D02*
X77375695Y-114895724D01*
X77375695Y-114895724D02*
X77518552Y-114895724D01*
X77518552Y-114895724D02*
X77613790Y-114943343D01*
X77613790Y-114943343D02*
X77661409Y-115038581D01*
X77661409Y-115038581D02*
X77661409Y-115562391D01*
D11*
%TO.C,Line Out*%
X116539000Y-49325001D02*
G75*
G02*
X115777000Y-49325001I-381000J0D01*
G01*
X115777000Y-49325001D02*
G75*
G02*
X116539000Y-49325001I381000J0D01*
G01*
%TD*%
M02*
