%TF.GenerationSoftware,KiCad,Pcbnew,9.0.4*%
%TF.CreationDate,2025-09-30T10:08:12+01:00*%
%TF.ProjectId,ay-zonic-core,61792d7a-6f6e-4696-932d-636f72652e6b,2.0*%
%TF.SameCoordinates,Original*%
%TF.FileFunction,Soldermask,Top*%
%TF.FilePolarity,Negative*%
%FSLAX46Y46*%
G04 Gerber Fmt 4.6, Leading zero omitted, Abs format (unit mm)*
G04 Created by KiCad (PCBNEW 9.0.4) date 2025-09-30 10:08:12*
%MOMM*%
%LPD*%
G01*
G04 APERTURE LIST*
G04 Aperture macros list*
%AMRoundRect*
0 Rectangle with rounded corners*
0 $1 Rounding radius*
0 $2 $3 $4 $5 $6 $7 $8 $9 X,Y pos of 4 corners*
0 Add a 4 corners polygon primitive as box body*
4,1,4,$2,$3,$4,$5,$6,$7,$8,$9,$2,$3,0*
0 Add four circle primitives for the rounded corners*
1,1,$1+$1,$2,$3*
1,1,$1+$1,$4,$5*
1,1,$1+$1,$6,$7*
1,1,$1+$1,$8,$9*
0 Add four rect primitives between the rounded corners*
20,1,$1+$1,$2,$3,$4,$5,0*
20,1,$1+$1,$4,$5,$6,$7,0*
20,1,$1+$1,$6,$7,$8,$9,0*
20,1,$1+$1,$8,$9,$2,$3,0*%
G04 Aperture macros list end*
%ADD10C,5.600000*%
%ADD11C,1.700000*%
%ADD12RoundRect,0.250000X0.950000X0.550000X-0.950000X0.550000X-0.950000X-0.550000X0.950000X-0.550000X0*%
%ADD13O,2.400000X1.600000*%
%ADD14C,1.600000*%
%ADD15C,1.193800*%
%ADD16C,1.752600*%
%ADD17RoundRect,0.250000X0.550000X0.550000X-0.550000X0.550000X-0.550000X-0.550000X0.550000X-0.550000X0*%
%ADD18RoundRect,0.250000X-0.550000X0.550000X-0.550000X-0.550000X0.550000X-0.550000X0.550000X0.550000X0*%
%ADD19R,1.600000X1.600000*%
%ADD20RoundRect,0.250000X-0.550000X0.950000X-0.550000X-0.950000X0.550000X-0.950000X0.550000X0.950000X0*%
%ADD21O,1.600000X2.400000*%
%ADD22R,1.700000X1.700000*%
G04 APERTURE END LIST*
D10*
%TO.C,H2*%
X67310000Y-113792000D03*
%TD*%
%TO.C,H1*%
X123190000Y-113792000D03*
%TD*%
%TO.C,H3*%
X67056000Y-45720000D03*
%TD*%
%TO.C,H4*%
X123190000Y-45720000D03*
%TD*%
D11*
%TO.C,CO1*%
X67310000Y-125984000D03*
X69850000Y-125984000D03*
X74930000Y-125984000D03*
X77470000Y-125984000D03*
X80010000Y-125984000D03*
X82550000Y-125984000D03*
X85090000Y-125984000D03*
X87630000Y-125984000D03*
X90170000Y-125984000D03*
X92710000Y-125984000D03*
X95250000Y-125984000D03*
X97790000Y-125984000D03*
X100330000Y-125984000D03*
X102870000Y-125984000D03*
X105410000Y-125984000D03*
X107950000Y-125984000D03*
X110490000Y-125984000D03*
X113030000Y-125984000D03*
X115570000Y-125984000D03*
X118110000Y-125984000D03*
X120650000Y-125984000D03*
X123190000Y-125984000D03*
X67310000Y-120904000D03*
X69850000Y-120904000D03*
X74930000Y-120904000D03*
X77470000Y-120904000D03*
X80010000Y-120904000D03*
X82550000Y-120904000D03*
X85090000Y-120904000D03*
X87630000Y-120904000D03*
X90170000Y-120904000D03*
X92710000Y-120904000D03*
X95250000Y-120904000D03*
X97790000Y-120904000D03*
X100330000Y-120904000D03*
X102870000Y-120904000D03*
X105410000Y-120904000D03*
X107950000Y-120904000D03*
X110490000Y-120904000D03*
X113030000Y-120904000D03*
X115570000Y-120904000D03*
X118110000Y-120904000D03*
X120650000Y-120904000D03*
X123190000Y-120904000D03*
%TD*%
D12*
%TO.C,U5*%
X122936000Y-92964000D03*
D13*
X122936000Y-95504000D03*
X122936000Y-98044000D03*
X122936000Y-100584000D03*
X122936000Y-103124000D03*
X122936000Y-105664000D03*
X122936000Y-108204000D03*
X115316000Y-108204000D03*
X115316000Y-105664000D03*
X115316000Y-103124000D03*
X115316000Y-100584000D03*
X115316000Y-98044000D03*
X115316000Y-95504000D03*
X115316000Y-92964000D03*
%TD*%
D14*
%TO.C,R8*%
X114554000Y-71374000D03*
X122174000Y-71374000D03*
%TD*%
%TO.C,FB1*%
X96774000Y-84836000D03*
X96774000Y-77216000D03*
%TD*%
%TO.C,C6*%
X70144000Y-89916000D03*
X72644000Y-89916000D03*
%TD*%
D12*
%TO.C,U2*%
X75184000Y-92964000D03*
D13*
X75184000Y-95504000D03*
X75184000Y-98044000D03*
X75184000Y-100584000D03*
X75184000Y-103124000D03*
X75184000Y-105664000D03*
X75184000Y-108204000D03*
X67564000Y-108204000D03*
X67564000Y-105664000D03*
X67564000Y-103124000D03*
X67564000Y-100584000D03*
X67564000Y-98044000D03*
X67564000Y-95504000D03*
X67564000Y-92964000D03*
%TD*%
D14*
%TO.C,C3*%
X122154000Y-66802000D03*
X119654000Y-66802000D03*
%TD*%
D15*
%TO.C,Line Out*%
X125222000Y-52230000D03*
X122722000Y-52230000D03*
X117722000Y-57230000D03*
X125222000Y-62230000D03*
X122722000Y-62230000D03*
D16*
X117722000Y-52230000D03*
X117722000Y-54730000D03*
X117722000Y-59730000D03*
X117722000Y-62230000D03*
X122722000Y-57230000D03*
%TD*%
D17*
%TO.C,C1*%
X122428000Y-81026000D03*
D14*
X120428000Y-81026000D03*
%TD*%
%TO.C,R7*%
X110236000Y-81026000D03*
X102616000Y-81026000D03*
%TD*%
%TO.C,R3*%
X102616000Y-77978000D03*
X110236000Y-77978000D03*
%TD*%
%TO.C,R1*%
X106172000Y-92710000D03*
X106172000Y-100330000D03*
%TD*%
%TO.C,R9*%
X122174000Y-74422000D03*
X114554000Y-74422000D03*
%TD*%
D17*
%TO.C,C2*%
X116332000Y-81026000D03*
D14*
X114332000Y-81026000D03*
%TD*%
%TO.C,C8*%
X97830000Y-89916000D03*
X100330000Y-89916000D03*
%TD*%
%TO.C,C4*%
X117074000Y-66802000D03*
X114574000Y-66802000D03*
%TD*%
D18*
%TO.C,SW1*%
X110744000Y-92710000D03*
D14*
X110744000Y-100330000D03*
%TD*%
%TO.C,C9*%
X117876000Y-89916000D03*
X120376000Y-89916000D03*
%TD*%
%TO.C,R5*%
X109728000Y-63754000D03*
X109728000Y-56134000D03*
%TD*%
%TO.C,C5*%
X68326000Y-58654000D03*
X68326000Y-56154000D03*
%TD*%
D19*
%TO.C,RN3*%
X68834000Y-85344000D03*
D14*
X71374000Y-85344000D03*
X73914000Y-85344000D03*
X76454000Y-85344000D03*
X78994000Y-85344000D03*
X81534000Y-85344000D03*
X84074000Y-85344000D03*
X86614000Y-85344000D03*
%TD*%
%TO.C,R2*%
X110490000Y-66802000D03*
X110490000Y-74422000D03*
%TD*%
%TO.C,C7*%
X84094000Y-89916000D03*
X86594000Y-89916000D03*
%TD*%
%TO.C,R4*%
X112776000Y-63754000D03*
X112776000Y-56134000D03*
%TD*%
D12*
%TO.C,U3*%
X89154000Y-92964000D03*
D13*
X89154000Y-95504000D03*
X89154000Y-98044000D03*
X89154000Y-100584000D03*
X89154000Y-103124000D03*
X89154000Y-105664000D03*
X89154000Y-108204000D03*
X81534000Y-108204000D03*
X81534000Y-105664000D03*
X81534000Y-103124000D03*
X81534000Y-100584000D03*
X81534000Y-98044000D03*
X81534000Y-95504000D03*
X81534000Y-92964000D03*
%TD*%
D20*
%TO.C,U1*%
X71374000Y-56134000D03*
D21*
X73914000Y-56134000D03*
X76454000Y-56134000D03*
X78994000Y-56134000D03*
X81534000Y-56134000D03*
X84074000Y-56134000D03*
X86614000Y-56134000D03*
X89154000Y-56134000D03*
X91694000Y-56134000D03*
X94234000Y-56134000D03*
X96774000Y-56134000D03*
X99314000Y-56134000D03*
X101854000Y-56134000D03*
X104394000Y-56134000D03*
X104394000Y-71374000D03*
X101854000Y-71374000D03*
X99314000Y-71374000D03*
X96774000Y-71374000D03*
X94234000Y-71374000D03*
X91694000Y-71374000D03*
X89154000Y-71374000D03*
X86614000Y-71374000D03*
X84074000Y-71374000D03*
X81534000Y-71374000D03*
X78994000Y-71374000D03*
X76454000Y-71374000D03*
X73914000Y-71374000D03*
X71374000Y-71374000D03*
%TD*%
D14*
%TO.C,R6*%
X110236000Y-84074000D03*
X102616000Y-84074000D03*
%TD*%
D22*
%TO.C,I/O*%
X99314000Y-46482000D03*
D11*
X96774000Y-46482000D03*
X94234000Y-46482000D03*
X91694000Y-46482000D03*
X89154000Y-46482000D03*
X86614000Y-46482000D03*
X84074000Y-46482000D03*
X81534000Y-46482000D03*
X78994000Y-46482000D03*
X76454000Y-46482000D03*
%TD*%
D12*
%TO.C,U4*%
X102870000Y-92964000D03*
D13*
X102870000Y-95504000D03*
X102870000Y-98044000D03*
X102870000Y-100584000D03*
X102870000Y-103124000D03*
X102870000Y-105664000D03*
X102870000Y-108204000D03*
X95250000Y-108204000D03*
X95250000Y-105664000D03*
X95250000Y-103124000D03*
X95250000Y-100584000D03*
X95250000Y-98044000D03*
X95250000Y-95504000D03*
X95250000Y-92964000D03*
%TD*%
D19*
%TO.C,RN1*%
X68834000Y-75184000D03*
D14*
X71374000Y-75184000D03*
X73914000Y-75184000D03*
X76454000Y-75184000D03*
X78994000Y-75184000D03*
X81534000Y-75184000D03*
X84074000Y-75184000D03*
X86614000Y-75184000D03*
X89154000Y-75184000D03*
%TD*%
D19*
%TO.C,RN2*%
X68834000Y-80264000D03*
D14*
X71374000Y-80264000D03*
X73914000Y-80264000D03*
X76454000Y-80264000D03*
X78994000Y-80264000D03*
X81534000Y-80264000D03*
X84074000Y-80264000D03*
X86614000Y-80264000D03*
%TD*%
M02*
