%TF.GenerationSoftware,KiCad,Pcbnew,9.0.4*%
%TF.CreationDate,2025-09-25T21:38:56+01:00*%
%TF.ProjectId,ay-zonic-core,61792d7a-6f6e-4696-932d-636f72652e6b,2.0*%
%TF.SameCoordinates,Original*%
%TF.FileFunction,Copper,L2,Bot*%
%TF.FilePolarity,Positive*%
%FSLAX46Y46*%
G04 Gerber Fmt 4.6, Leading zero omitted, Abs format (unit mm)*
G04 Created by KiCad (PCBNEW 9.0.4) date 2025-09-25 21:38:56*
%MOMM*%
%LPD*%
G01*
G04 APERTURE LIST*
G04 Aperture macros list*
%AMRoundRect*
0 Rectangle with rounded corners*
0 $1 Rounding radius*
0 $2 $3 $4 $5 $6 $7 $8 $9 X,Y pos of 4 corners*
0 Add a 4 corners polygon primitive as box body*
4,1,4,$2,$3,$4,$5,$6,$7,$8,$9,$2,$3,0*
0 Add four circle primitives for the rounded corners*
1,1,$1+$1,$2,$3*
1,1,$1+$1,$4,$5*
1,1,$1+$1,$6,$7*
1,1,$1+$1,$8,$9*
0 Add four rect primitives between the rounded corners*
20,1,$1+$1,$2,$3,$4,$5,0*
20,1,$1+$1,$4,$5,$6,$7,0*
20,1,$1+$1,$6,$7,$8,$9,0*
20,1,$1+$1,$8,$9,$2,$3,0*%
G04 Aperture macros list end*
%TA.AperFunction,ComponentPad*%
%ADD10C,1.600000*%
%TD*%
%TA.AperFunction,ComponentPad*%
%ADD11RoundRect,0.250000X-0.550000X0.550000X-0.550000X-0.550000X0.550000X-0.550000X0.550000X0.550000X0*%
%TD*%
%TA.AperFunction,ComponentPad*%
%ADD12C,1.700000*%
%TD*%
%TA.AperFunction,ComponentPad*%
%ADD13RoundRect,0.250000X0.950000X0.550000X-0.950000X0.550000X-0.950000X-0.550000X0.950000X-0.550000X0*%
%TD*%
%TA.AperFunction,ComponentPad*%
%ADD14O,2.400000X1.600000*%
%TD*%
%TA.AperFunction,ComponentPad*%
%ADD15C,1.752600*%
%TD*%
%TA.AperFunction,ComponentPad*%
%ADD16RoundRect,0.250000X0.550000X0.550000X-0.550000X0.550000X-0.550000X-0.550000X0.550000X-0.550000X0*%
%TD*%
%TA.AperFunction,ComponentPad*%
%ADD17R,1.600000X1.600000*%
%TD*%
%TA.AperFunction,ComponentPad*%
%ADD18RoundRect,0.250000X-0.550000X0.950000X-0.550000X-0.950000X0.550000X-0.950000X0.550000X0.950000X0*%
%TD*%
%TA.AperFunction,ComponentPad*%
%ADD19O,1.600000X2.400000*%
%TD*%
%TA.AperFunction,ComponentPad*%
%ADD20R,1.700000X1.700000*%
%TD*%
%TA.AperFunction,ViaPad*%
%ADD21C,0.600000*%
%TD*%
%TA.AperFunction,ViaPad*%
%ADD22C,0.800000*%
%TD*%
%TA.AperFunction,Conductor*%
%ADD23C,0.250000*%
%TD*%
%TA.AperFunction,Conductor*%
%ADD24C,0.500000*%
%TD*%
%TA.AperFunction,Conductor*%
%ADD25C,1.000000*%
%TD*%
G04 APERTURE END LIST*
D10*
%TO.P,SW1,2*%
%TO.N,Net-(R1-Pad2)*%
X110744000Y-100330000D03*
D11*
%TO.P,SW1,1*%
%TO.N,/A4*%
X110744000Y-92710000D03*
%TD*%
D12*
%TO.P,CO1,A3,+5Vcc*%
%TO.N,VCC*%
X67310000Y-125984000D03*
%TO.P,CO1,A4,+9Vcc*%
%TO.N,unconnected-(CO1-+9Vcc-PadA4)*%
X69850000Y-125984000D03*
%TO.P,CO1,A6,GND*%
%TO.N,GND*%
X74930000Y-125984000D03*
%TO.P,CO1,A7,GND*%
X77470000Y-125984000D03*
%TO.P,CO1,A8,CLK*%
%TO.N,/CLK*%
X80010000Y-125984000D03*
%TO.P,CO1,A9,A0*%
%TO.N,/A0*%
X82550000Y-125984000D03*
%TO.P,CO1,A10,A1*%
%TO.N,/A1*%
X85090000Y-125984000D03*
%TO.P,CO1,A11,A2*%
%TO.N,/A2*%
X87630000Y-125984000D03*
%TO.P,CO1,A12,A3*%
%TO.N,/A3*%
X90170000Y-125984000D03*
%TO.P,CO1,A13,A15*%
%TO.N,unconnected-(CO1-A15-PadA13)*%
X92710000Y-125984000D03*
%TO.P,CO1,A14,A14*%
%TO.N,unconnected-(CO1-PadA14)*%
X95250000Y-125984000D03*
%TO.P,CO1,A15,A13*%
%TO.N,unconnected-(CO1-A13-PadA15)*%
X97790000Y-125984000D03*
%TO.P,CO1,A16,A12*%
%TO.N,unconnected-(CO1-A12-PadA16)*%
X100330000Y-125984000D03*
%TO.P,CO1,A17,A11*%
%TO.N,unconnected-(CO1-A11-PadA17)*%
X102870000Y-125984000D03*
%TO.P,CO1,A18,A10*%
%TO.N,unconnected-(CO1-A10-PadA18)*%
X105410000Y-125984000D03*
%TO.P,CO1,A19,A9*%
%TO.N,unconnected-(CO1-A9-PadA19)*%
X107950000Y-125984000D03*
%TO.P,CO1,A20,A8*%
%TO.N,unconnected-(CO1-A8-PadA20)*%
X110490000Y-125984000D03*
%TO.P,CO1,A21,A7*%
%TO.N,/A7*%
X113030000Y-125984000D03*
%TO.P,CO1,A22,A6*%
%TO.N,unconnected-(CO1-A6-PadA22)*%
X115570000Y-125984000D03*
%TO.P,CO1,A23,A5*%
%TO.N,unconnected-(CO1-A5-PadA23)*%
X118110000Y-125984000D03*
%TO.P,CO1,A24,A4*%
%TO.N,/A4*%
X120650000Y-125984000D03*
%TO.P,CO1,A25,~{ROMCS}*%
%TO.N,unconnected-(CO1-~{ROMCS}-PadA25)*%
X123190000Y-125984000D03*
%TO.P,CO1,B3,D7*%
%TO.N,/D7*%
X67310000Y-120904000D03*
%TO.P,CO1,B4,~{RAMCS}*%
%TO.N,unconnected-(CO1-~{RAMCS}-PadB4)*%
X69850000Y-120904000D03*
%TO.P,CO1,B6,D0*%
%TO.N,/D0*%
X74930000Y-120904000D03*
%TO.P,CO1,B7,D1*%
%TO.N,/D1*%
X77470000Y-120904000D03*
%TO.P,CO1,B8,D2*%
%TO.N,/D2*%
X80010000Y-120904000D03*
%TO.P,CO1,B9,D6*%
%TO.N,/D6*%
X82550000Y-120904000D03*
%TO.P,CO1,B10,D5*%
%TO.N,/D5*%
X85090000Y-120904000D03*
%TO.P,CO1,B11,D3*%
%TO.N,/D3*%
X87630000Y-120904000D03*
%TO.P,CO1,B12,D4*%
%TO.N,/D4*%
X90170000Y-120904000D03*
%TO.P,CO1,B13,~{INT}*%
%TO.N,unconnected-(CO1-~{INT}-PadB13)*%
X92710000Y-120904000D03*
%TO.P,CO1,B14,~{NMI}*%
%TO.N,unconnected-(CO1-~{NMI}-PadB14)*%
X95250000Y-120904000D03*
%TO.P,CO1,B15,~{HALT}*%
%TO.N,unconnected-(CO1-~{HALT}-PadB15)*%
X97790000Y-120904000D03*
%TO.P,CO1,B16,~{MREQ}*%
%TO.N,unconnected-(CO1-~{MREQ}-PadB16)*%
X100330000Y-120904000D03*
%TO.P,CO1,B17,~{IOREQ}*%
%TO.N,/~{IOREQ}*%
X102870000Y-120904000D03*
%TO.P,CO1,B18,~{RD}*%
%TO.N,/~{RD}*%
X105410000Y-120904000D03*
%TO.P,CO1,B19,~{WR}*%
%TO.N,/~{WR}*%
X107950000Y-120904000D03*
%TO.P,CO1,B20,~{BUSAC}*%
%TO.N,unconnected-(CO1-~{BUSAC}-PadB20)*%
X110490000Y-120904000D03*
%TO.P,CO1,B21,~{WAIT}*%
%TO.N,unconnected-(CO1-~{WAIT}-PadB21)*%
X113030000Y-120904000D03*
%TO.P,CO1,B22,~{BUSRQ}*%
%TO.N,unconnected-(CO1-~{BUSRQ}-PadB22)*%
X115570000Y-120904000D03*
%TO.P,CO1,B23,~{RESET}*%
%TO.N,/~{RESET}*%
X118110000Y-120904000D03*
%TO.P,CO1,B24,~{M1}*%
%TO.N,unconnected-(CO1-~{M1}-PadB24)*%
X120650000Y-120904000D03*
%TO.P,CO1,B25,~{RFSH}*%
%TO.N,unconnected-(CO1-~{RFSH}-PadB25)*%
X123190000Y-120904000D03*
%TD*%
D13*
%TO.P,U5,1*%
%TO.N,/IOWR*%
X122936000Y-92964000D03*
D14*
%TO.P,U5,2*%
%TO.N,/~{IOREQ}*%
X122936000Y-95504000D03*
%TO.P,U5,3*%
%TO.N,/~{WR}*%
X122936000Y-98044000D03*
%TO.P,U5,4*%
%TO.N,Net-(U5-Pad11)*%
X122936000Y-100584000D03*
%TO.P,U5,5*%
%TO.N,Net-(U3-Pad6)*%
X122936000Y-103124000D03*
%TO.P,U5,6*%
%TO.N,Net-(U3-Pad11)*%
X122936000Y-105664000D03*
%TO.P,U5,7,GND*%
%TO.N,GND*%
X122936000Y-108204000D03*
%TO.P,U5,8*%
%TO.N,/~{IOREQ}*%
X115316000Y-108204000D03*
%TO.P,U5,9*%
%TO.N,/~{RD}*%
X115316000Y-105664000D03*
%TO.P,U5,10*%
%TO.N,/IORD*%
X115316000Y-103124000D03*
%TO.P,U5,11*%
%TO.N,Net-(U5-Pad11)*%
X115316000Y-100584000D03*
%TO.P,U5,12*%
X115316000Y-98044000D03*
%TO.P,U5,13*%
%TO.N,/BC1*%
X115316000Y-95504000D03*
%TO.P,U5,14,VCC*%
%TO.N,VCC*%
X115316000Y-92964000D03*
%TD*%
D10*
%TO.P,R8,1*%
%TO.N,Net-(C2-Pad2)*%
X114554000Y-71374000D03*
%TO.P,R8,2*%
%TO.N,/LEFT*%
X122174000Y-71374000D03*
%TD*%
%TO.P,FB1,1*%
%TO.N,GND*%
X96774000Y-84836000D03*
%TO.P,FB1,2*%
%TO.N,GND_AUDIO*%
X96774000Y-77216000D03*
%TD*%
%TO.P,C6,1*%
%TO.N,VCC*%
X70144000Y-89916000D03*
%TO.P,C6,2*%
%TO.N,GND*%
X72644000Y-89916000D03*
%TD*%
D13*
%TO.P,U2,1,~{R}*%
%TO.N,VCC*%
X75184000Y-92964000D03*
D14*
%TO.P,U2,2,D*%
%TO.N,Net-(U2A-D)*%
X75184000Y-95504000D03*
%TO.P,U2,3,C*%
%TO.N,/CLK*%
X75184000Y-98044000D03*
%TO.P,U2,4,~{S}*%
%TO.N,VCC*%
X75184000Y-100584000D03*
%TO.P,U2,5,Q*%
%TO.N,/PSGCLK*%
X75184000Y-103124000D03*
%TO.P,U2,6,~{Q}*%
%TO.N,Net-(U2A-D)*%
X75184000Y-105664000D03*
%TO.P,U2,7,GND*%
%TO.N,GND*%
X75184000Y-108204000D03*
%TO.P,U2,8,~{Q}*%
%TO.N,unconnected-(U2B-~{Q}-Pad8)*%
X67564000Y-108204000D03*
%TO.P,U2,9,Q*%
%TO.N,unconnected-(U2B-Q-Pad9)*%
X67564000Y-105664000D03*
%TO.P,U2,10,~{S}*%
%TO.N,VCC*%
X67564000Y-103124000D03*
%TO.P,U2,11,C*%
X67564000Y-100584000D03*
%TO.P,U2,12,D*%
X67564000Y-98044000D03*
%TO.P,U2,13,~{R}*%
X67564000Y-95504000D03*
%TO.P,U2,14,VCC*%
X67564000Y-92964000D03*
%TD*%
D10*
%TO.P,C3,1*%
%TO.N,/LEFT*%
X122154000Y-66802000D03*
%TO.P,C3,2*%
%TO.N,GND_AUDIO*%
X119654000Y-66802000D03*
%TD*%
D15*
%TO.P,Line Out,1,1*%
%TO.N,/RIGHT*%
X116158000Y-52230000D03*
%TO.P,Line Out,2,2*%
%TO.N,unconnected-(CO2-Pad2)*%
X116158000Y-54730000D03*
%TO.P,Line Out,3,3*%
%TO.N,unconnected-(CO2-Pad3)*%
X116158000Y-59730000D03*
%TO.P,Line Out,4,4*%
%TO.N,/LEFT*%
X116158000Y-62230000D03*
%TO.P,Line Out,5,5*%
%TO.N,GND_AUDIO*%
X121158000Y-57230000D03*
%TD*%
D16*
%TO.P,C1,1*%
%TO.N,Net-(C1-Pad1)*%
X122428000Y-81026000D03*
D10*
%TO.P,C1,2*%
%TO.N,Net-(C1-Pad2)*%
X120428000Y-81026000D03*
%TD*%
%TO.P,R7,1*%
%TO.N,Net-(C1-Pad1)*%
X110236000Y-81026000D03*
%TO.P,R7,2*%
%TO.N,GND_AUDIO*%
X102616000Y-81026000D03*
%TD*%
%TO.P,R3,1*%
%TO.N,/OUTC*%
X102616000Y-77978000D03*
%TO.P,R3,2*%
%TO.N,Net-(C1-Pad1)*%
X110236000Y-77978000D03*
%TD*%
%TO.P,R1,1*%
%TO.N,VCC*%
X106172000Y-92710000D03*
%TO.P,R1,2*%
%TO.N,Net-(R1-Pad2)*%
X106172000Y-100330000D03*
%TD*%
%TO.P,R9,1*%
%TO.N,Net-(C1-Pad2)*%
X122174000Y-74422000D03*
%TO.P,R9,2*%
%TO.N,/RIGHT*%
X114554000Y-74422000D03*
%TD*%
D16*
%TO.P,C2,1*%
%TO.N,Net-(C2-Pad1)*%
X116332000Y-81026000D03*
D10*
%TO.P,C2,2*%
%TO.N,Net-(C2-Pad2)*%
X114332000Y-81026000D03*
%TD*%
%TO.P,C8,1*%
%TO.N,VCC*%
X97830000Y-89916000D03*
%TO.P,C8,2*%
%TO.N,GND*%
X100330000Y-89916000D03*
%TD*%
%TO.P,C4,1*%
%TO.N,/RIGHT*%
X117074000Y-66802000D03*
%TO.P,C4,2*%
%TO.N,GND_AUDIO*%
X114574000Y-66802000D03*
%TD*%
%TO.P,C9,1*%
%TO.N,VCC*%
X117876000Y-89916000D03*
%TO.P,C9,2*%
%TO.N,GND*%
X120376000Y-89916000D03*
%TD*%
%TO.P,R5,1*%
%TO.N,Net-(C1-Pad1)*%
X108204000Y-63754000D03*
%TO.P,R5,2*%
%TO.N,/OUTB*%
X108204000Y-56134000D03*
%TD*%
%TO.P,C5,1*%
%TO.N,VCC*%
X68326000Y-58654000D03*
%TO.P,C5,2*%
%TO.N,GND*%
X68326000Y-56154000D03*
%TD*%
D17*
%TO.P,RN3,1,R1.1*%
%TO.N,/D4*%
X68834000Y-85344000D03*
D10*
%TO.P,RN3,2,R1.2*%
%TO.N,Net-(RN1-R5)*%
X71374000Y-85344000D03*
%TO.P,RN3,3,R2.1*%
%TO.N,/D5*%
X73914000Y-85344000D03*
%TO.P,RN3,4,R2.2*%
%TO.N,Net-(RN1-R6)*%
X76454000Y-85344000D03*
%TO.P,RN3,5,R3.1*%
%TO.N,/D6*%
X78994000Y-85344000D03*
%TO.P,RN3,6,R3.2*%
%TO.N,Net-(RN1-R7)*%
X81534000Y-85344000D03*
%TO.P,RN3,7,R4.1*%
%TO.N,/D7*%
X84074000Y-85344000D03*
%TO.P,RN3,8,R4.2*%
%TO.N,Net-(RN1-R8)*%
X86614000Y-85344000D03*
%TD*%
%TO.P,R2,1*%
%TO.N,/OUTA*%
X110490000Y-66802000D03*
%TO.P,R2,2*%
%TO.N,Net-(C2-Pad1)*%
X110490000Y-74422000D03*
%TD*%
%TO.P,C7,1*%
%TO.N,VCC*%
X84856000Y-89916000D03*
%TO.P,C7,2*%
%TO.N,GND*%
X87356000Y-89916000D03*
%TD*%
%TO.P,R4,1*%
%TO.N,Net-(C2-Pad1)*%
X111252000Y-63754000D03*
%TO.P,R4,2*%
%TO.N,/OUTB*%
X111252000Y-56134000D03*
%TD*%
D13*
%TO.P,U3,1*%
%TO.N,/VALID*%
X89916000Y-92964000D03*
D14*
%TO.P,U3,2*%
%TO.N,/IOWR*%
X89916000Y-95504000D03*
%TO.P,U3,3*%
%TO.N,/BDIR*%
X89916000Y-98044000D03*
%TO.P,U3,4*%
X89916000Y-100584000D03*
%TO.P,U3,5*%
%TO.N,/A7*%
X89916000Y-103124000D03*
%TO.P,U3,6*%
%TO.N,Net-(U3-Pad6)*%
X89916000Y-105664000D03*
%TO.P,U3,7,GND*%
%TO.N,GND*%
X89916000Y-108204000D03*
%TO.P,U3,8*%
%TO.N,unconnected-(U3-Pad8)*%
X82296000Y-108204000D03*
%TO.P,U3,9*%
%TO.N,GND*%
X82296000Y-105664000D03*
%TO.P,U3,10*%
X82296000Y-103124000D03*
%TO.P,U3,11*%
%TO.N,Net-(U3-Pad11)*%
X82296000Y-100584000D03*
%TO.P,U3,12*%
%TO.N,/VALID*%
X82296000Y-98044000D03*
%TO.P,U3,13*%
%TO.N,/IORD*%
X82296000Y-95504000D03*
%TO.P,U3,14,VCC*%
%TO.N,VCC*%
X82296000Y-92964000D03*
%TD*%
D18*
%TO.P,U1,1,CH_C*%
%TO.N,/OUTC*%
X71374000Y-56134000D03*
D19*
%TO.P,U1,2,TEST1*%
%TO.N,unconnected-(U1-TEST1-Pad2)*%
X73914000Y-56134000D03*
%TO.P,U1,3,VCC*%
%TO.N,VCC*%
X76454000Y-56134000D03*
%TO.P,U1,4,CH_B*%
%TO.N,/OUTB*%
X78994000Y-56134000D03*
%TO.P,U1,5,CH_A*%
%TO.N,/OUTA*%
X81534000Y-56134000D03*
%TO.P,U1,6,GND*%
%TO.N,GND*%
X84074000Y-56134000D03*
%TO.P,U1,7,IOA7*%
%TO.N,/IOA7*%
X86614000Y-56134000D03*
%TO.P,U1,8,IOA6*%
%TO.N,/IOA6*%
X89154000Y-56134000D03*
%TO.P,U1,9,IOA5*%
%TO.N,/IOA5*%
X91694000Y-56134000D03*
%TO.P,U1,10,IOA4*%
%TO.N,/IOA4*%
X94234000Y-56134000D03*
%TO.P,U1,11,IOA3*%
%TO.N,/IOA3*%
X96774000Y-56134000D03*
%TO.P,U1,12,IOA2*%
%TO.N,/IOA2*%
X99314000Y-56134000D03*
%TO.P,U1,13,IOA1*%
%TO.N,/IOA1*%
X101854000Y-56134000D03*
%TO.P,U1,14,IOA0*%
%TO.N,/IOA0*%
X104394000Y-56134000D03*
%TO.P,U1,15,CLOCK*%
%TO.N,/PSGCLK*%
X104394000Y-71374000D03*
%TO.P,U1,16,~{RESET}*%
%TO.N,/~{RESET}*%
X101854000Y-71374000D03*
%TO.P,U1,17,A8*%
%TO.N,VCC*%
X99314000Y-71374000D03*
%TO.P,U1,18,BDIR*%
%TO.N,/BDIR*%
X96774000Y-71374000D03*
%TO.P,U1,19,BC2*%
%TO.N,VCC*%
X94234000Y-71374000D03*
%TO.P,U1,20,BC1*%
%TO.N,/BC1*%
X91694000Y-71374000D03*
%TO.P,U1,21,DA7*%
%TO.N,Net-(RN1-R8)*%
X89154000Y-71374000D03*
%TO.P,U1,22,DA6*%
%TO.N,Net-(RN1-R7)*%
X86614000Y-71374000D03*
%TO.P,U1,23,DA5*%
%TO.N,Net-(RN1-R6)*%
X84074000Y-71374000D03*
%TO.P,U1,24,DA4*%
%TO.N,Net-(RN1-R5)*%
X81534000Y-71374000D03*
%TO.P,U1,25,DA3*%
%TO.N,Net-(RN1-R4)*%
X78994000Y-71374000D03*
%TO.P,U1,26,DA2*%
%TO.N,Net-(RN1-R3)*%
X76454000Y-71374000D03*
%TO.P,U1,27,DA1*%
%TO.N,Net-(RN1-R2)*%
X73914000Y-71374000D03*
%TO.P,U1,28,DA0*%
%TO.N,Net-(RN1-R1)*%
X71374000Y-71374000D03*
%TD*%
D10*
%TO.P,R6,1*%
%TO.N,Net-(C2-Pad1)*%
X110236000Y-84074000D03*
%TO.P,R6,2*%
%TO.N,GND_AUDIO*%
X102616000Y-84074000D03*
%TD*%
D20*
%TO.P,I/O,1,Pin_1*%
%TO.N,VCC*%
X99314000Y-52070000D03*
D12*
%TO.P,I/O,2,Pin_2*%
%TO.N,/IOA0*%
X96774000Y-52070000D03*
%TO.P,I/O,3,Pin_3*%
%TO.N,/IOA1*%
X94234000Y-52070000D03*
%TO.P,I/O,4,Pin_4*%
%TO.N,/IOA2*%
X91694000Y-52070000D03*
%TO.P,I/O,5,Pin_5*%
%TO.N,/IOA3*%
X89154000Y-52070000D03*
%TO.P,I/O,6,Pin_6*%
%TO.N,/IOA4*%
X86614000Y-52070000D03*
%TO.P,I/O,7,Pin_7*%
%TO.N,/IOA5*%
X84074000Y-52070000D03*
%TO.P,I/O,8,Pin_8*%
%TO.N,/IOA6*%
X81534000Y-52070000D03*
%TO.P,I/O,9,Pin_9*%
%TO.N,/IOA7*%
X78994000Y-52070000D03*
%TO.P,I/O,10,Pin_10*%
%TO.N,GND*%
X76454000Y-52070000D03*
%TD*%
D13*
%TO.P,U4,1*%
%TO.N,/A3*%
X102870000Y-92964000D03*
D14*
%TO.P,U4,2*%
%TO.N,/A2*%
X102870000Y-95504000D03*
%TO.P,U4,3*%
%TO.N,Net-(U4-Pad12)*%
X102870000Y-98044000D03*
%TO.P,U4,4*%
%TO.N,/A0*%
X102870000Y-100584000D03*
%TO.P,U4,5*%
%TO.N,Net-(R1-Pad2)*%
X102870000Y-103124000D03*
%TO.P,U4,6*%
%TO.N,/VALID*%
X102870000Y-105664000D03*
%TO.P,U4,7,GND*%
%TO.N,GND*%
X102870000Y-108204000D03*
%TO.P,U4,8*%
%TO.N,unconnected-(U4-Pad8)*%
X95250000Y-108204000D03*
%TO.P,U4,9*%
%TO.N,GND*%
X95250000Y-105664000D03*
%TO.P,U4,10*%
X95250000Y-103124000D03*
%TO.P,U4,11*%
X95250000Y-100584000D03*
%TO.P,U4,12*%
%TO.N,Net-(U4-Pad12)*%
X95250000Y-98044000D03*
%TO.P,U4,13*%
%TO.N,/A1*%
X95250000Y-95504000D03*
%TO.P,U4,14,VCC*%
%TO.N,VCC*%
X95250000Y-92964000D03*
%TD*%
D17*
%TO.P,RN1,1,common*%
%TO.N,VCC*%
X68834000Y-75184000D03*
D10*
%TO.P,RN1,2,R1*%
%TO.N,Net-(RN1-R1)*%
X71374000Y-75184000D03*
%TO.P,RN1,3,R2*%
%TO.N,Net-(RN1-R2)*%
X73914000Y-75184000D03*
%TO.P,RN1,4,R3*%
%TO.N,Net-(RN1-R3)*%
X76454000Y-75184000D03*
%TO.P,RN1,5,R4*%
%TO.N,Net-(RN1-R4)*%
X78994000Y-75184000D03*
%TO.P,RN1,6,R5*%
%TO.N,Net-(RN1-R5)*%
X81534000Y-75184000D03*
%TO.P,RN1,7,R6*%
%TO.N,Net-(RN1-R6)*%
X84074000Y-75184000D03*
%TO.P,RN1,8,R7*%
%TO.N,Net-(RN1-R7)*%
X86614000Y-75184000D03*
%TO.P,RN1,9,R8*%
%TO.N,Net-(RN1-R8)*%
X89154000Y-75184000D03*
%TD*%
D17*
%TO.P,RN2,1,R1.1*%
%TO.N,/D0*%
X68834000Y-80264000D03*
D10*
%TO.P,RN2,2,R1.2*%
%TO.N,Net-(RN1-R1)*%
X71374000Y-80264000D03*
%TO.P,RN2,3,R2.1*%
%TO.N,/D1*%
X73914000Y-80264000D03*
%TO.P,RN2,4,R2.2*%
%TO.N,Net-(RN1-R2)*%
X76454000Y-80264000D03*
%TO.P,RN2,5,R3.1*%
%TO.N,/D2*%
X78994000Y-80264000D03*
%TO.P,RN2,6,R3.2*%
%TO.N,Net-(RN1-R3)*%
X81534000Y-80264000D03*
%TO.P,RN2,7,R4.1*%
%TO.N,/D3*%
X84074000Y-80264000D03*
%TO.P,RN2,8,R4.2*%
%TO.N,Net-(RN1-R4)*%
X86614000Y-80264000D03*
%TD*%
D21*
%TO.N,Net-(U3-Pad11)*%
X121351400Y-103956700D03*
X85427900Y-107681800D03*
%TO.N,Net-(U3-Pad6)*%
X98752000Y-101929400D03*
%TO.N,/PSGCLK*%
X92681000Y-73330200D03*
X92086800Y-104181900D03*
%TO.N,/BC1*%
X110851900Y-73099400D03*
%TO.N,/A2*%
X98873300Y-119670700D03*
%TO.N,/~{RD}*%
X105767900Y-109140500D03*
%TO.N,/A7*%
X104157000Y-107150000D03*
%TO.N,/D0*%
X71389900Y-115979700D03*
%TO.N,/D7*%
X74670500Y-87906200D03*
%TO.N,/A1*%
X87126100Y-99294100D03*
X93012900Y-99294100D03*
%TO.N,/~{WR}*%
X120680400Y-118320800D03*
%TO.N,/D4*%
X86762700Y-86994100D03*
%TO.N,/A0*%
X100039800Y-118788900D03*
%TO.N,/D5*%
X77367400Y-113795100D03*
D22*
%TO.N,VCC*%
X65763800Y-76092500D03*
D21*
%TO.N,Net-(C1-Pad1)*%
X106591000Y-75763700D03*
%TD*%
D23*
%TO.N,Net-(U5-Pad11)*%
X122936000Y-100584000D02*
X115316000Y-100584000D01*
%TO.N,Net-(U4-Pad12)*%
X102870000Y-98044000D02*
X95250000Y-98044000D01*
%TO.N,/IOWR*%
X121630700Y-94269300D02*
X122936000Y-92964000D01*
X92677400Y-94269300D02*
X121630700Y-94269300D01*
X91442700Y-95504000D02*
X92677400Y-94269300D01*
X89916000Y-95504000D02*
X91442700Y-95504000D01*
%TO.N,Net-(U3-Pad11)*%
X87516100Y-109770000D02*
X85427900Y-107681800D01*
X106113000Y-109770000D02*
X87516100Y-109770000D01*
X108972700Y-106910300D02*
X106113000Y-109770000D01*
X118397800Y-106910300D02*
X108972700Y-106910300D01*
X121351400Y-103956700D02*
X118397800Y-106910300D01*
%TO.N,Net-(U3-Pad6)*%
X101100900Y-104278300D02*
X98752000Y-101929400D01*
X118352900Y-104278300D02*
X101100900Y-104278300D01*
X119507200Y-103124000D02*
X118352900Y-104278300D01*
X122936000Y-103124000D02*
X119507200Y-103124000D01*
%TO.N,/VALID*%
X81532700Y-98044000D02*
X80769300Y-98044000D01*
X81532700Y-98044000D02*
X82296000Y-98044000D01*
X80769300Y-95021600D02*
X80769300Y-98044000D01*
X81521600Y-94269300D02*
X80769300Y-95021600D01*
X88610700Y-94269300D02*
X81521600Y-94269300D01*
X89916000Y-92964000D02*
X88610700Y-94269300D01*
X102870000Y-105664000D02*
X101343300Y-105664000D01*
X82296000Y-98044000D02*
X83822700Y-98044000D01*
X97533300Y-101854000D02*
X101343300Y-105664000D01*
X87632700Y-101854000D02*
X97533300Y-101854000D01*
X83822700Y-98044000D02*
X87632700Y-101854000D01*
%TO.N,/IORD*%
X113789300Y-101692700D02*
X113789300Y-103124000D01*
X108791100Y-96694500D02*
X113789300Y-101692700D01*
X85013200Y-96694500D02*
X108791100Y-96694500D01*
X83822700Y-95504000D02*
X85013200Y-96694500D01*
X82296000Y-95504000D02*
X83822700Y-95504000D01*
X115316000Y-103124000D02*
X113789300Y-103124000D01*
%TO.N,/PSGCLK*%
X75184000Y-103124000D02*
X76710700Y-103124000D01*
X77927700Y-104341000D02*
X76710700Y-103124000D01*
X91927700Y-104341000D02*
X77927700Y-104341000D01*
X92086800Y-104181900D02*
X91927700Y-104341000D01*
X104394000Y-71374000D02*
X104394000Y-69847300D01*
X93096700Y-69331900D02*
X92832100Y-69596500D01*
X103878600Y-69331900D02*
X93096700Y-69331900D01*
X104394000Y-69847300D02*
X103878600Y-69331900D01*
X91656700Y-73330200D02*
X92681000Y-73330200D01*
X90567300Y-72240800D02*
X91656700Y-73330200D01*
X90567300Y-70507200D02*
X90567300Y-72240800D01*
X91290900Y-69783600D02*
X90567300Y-70507200D01*
X92645000Y-69783600D02*
X91290900Y-69783600D01*
X92832100Y-69596500D02*
X92645000Y-69783600D01*
X92832100Y-69596500D02*
X92645000Y-69783600D01*
%TO.N,/BC1*%
X104124200Y-73099400D02*
X110851900Y-73099400D01*
X102991100Y-71966300D02*
X104124200Y-73099400D01*
X102991100Y-70428800D02*
X102991100Y-71966300D01*
X102345900Y-69783600D02*
X102991100Y-70428800D01*
X93284400Y-69783600D02*
X102345900Y-69783600D01*
X91694000Y-71374000D02*
X93284400Y-69783600D01*
%TO.N,Net-(RN1-R3)*%
X76454000Y-75184000D02*
X81534000Y-80264000D01*
%TO.N,Net-(RN1-R4)*%
X82804000Y-76454000D02*
X86614000Y-80264000D01*
X82804000Y-74859100D02*
X82804000Y-76454000D01*
X81989900Y-74045000D02*
X82804000Y-74859100D01*
X80133000Y-74045000D02*
X81989900Y-74045000D01*
X78994000Y-75184000D02*
X80133000Y-74045000D01*
%TO.N,Net-(RN1-R5)*%
X73914000Y-82804000D02*
X71374000Y-85344000D01*
X80597300Y-82804000D02*
X73914000Y-82804000D01*
X82724600Y-80676700D02*
X80597300Y-82804000D01*
X82724600Y-78212100D02*
X82724600Y-80676700D01*
X81534000Y-77021500D02*
X82724600Y-78212100D01*
X81534000Y-75184000D02*
X81534000Y-77021500D01*
%TO.N,/OUTB*%
X111252000Y-56134000D02*
X108204000Y-56134000D01*
X78994000Y-56134000D02*
X78994000Y-57660700D01*
X79079900Y-57746600D02*
X78994000Y-57660700D01*
X106591400Y-57746600D02*
X79079900Y-57746600D01*
X108204000Y-56134000D02*
X106591400Y-57746600D01*
%TO.N,/OUTC*%
X99097700Y-74459700D02*
X102616000Y-77978000D01*
X90246200Y-74459700D02*
X99097700Y-74459700D01*
X88027300Y-72240800D02*
X90246200Y-74459700D01*
X88027300Y-70723700D02*
X88027300Y-72240800D01*
X84700600Y-67397000D02*
X88027300Y-70723700D01*
X82637000Y-67397000D02*
X84700600Y-67397000D01*
X71374000Y-56134000D02*
X82637000Y-67397000D01*
%TO.N,/OUTA*%
X78522900Y-54607300D02*
X81534000Y-54607300D01*
X77839800Y-55290400D02*
X78522900Y-54607300D01*
X77839800Y-57145400D02*
X77839800Y-55290400D01*
X87496400Y-66802000D02*
X77839800Y-57145400D01*
X110490000Y-66802000D02*
X87496400Y-66802000D01*
X81534000Y-56134000D02*
X81534000Y-54607300D01*
%TO.N,Net-(R1-Pad2)*%
X106172000Y-100330000D02*
X110744000Y-100330000D01*
X104396700Y-102105300D02*
X104396700Y-103124000D01*
X106172000Y-100330000D02*
X104396700Y-102105300D01*
X102870000Y-103124000D02*
X104396700Y-103124000D01*
%TO.N,/IOA0*%
X104394000Y-56134000D02*
X104394000Y-54607300D01*
X98000700Y-50843300D02*
X96774000Y-52070000D01*
X100630000Y-50843300D02*
X98000700Y-50843300D01*
X104394000Y-54607300D02*
X100630000Y-50843300D01*
%TO.N,/IOA2*%
X99314000Y-56134000D02*
X99314000Y-54607300D01*
X92879800Y-53255800D02*
X91694000Y-52070000D01*
X94421500Y-53255800D02*
X92879800Y-53255800D01*
X95773000Y-54607300D02*
X94421500Y-53255800D01*
X99314000Y-54607300D02*
X95773000Y-54607300D01*
%TO.N,/IOA3*%
X90510600Y-53426600D02*
X89154000Y-52070000D01*
X92165400Y-53426600D02*
X90510600Y-53426600D01*
X93310000Y-54571200D02*
X92165400Y-53426600D01*
X94872900Y-54571200D02*
X93310000Y-54571200D01*
X96435700Y-56134000D02*
X94872900Y-54571200D01*
X96774000Y-56134000D02*
X96435700Y-56134000D01*
%TO.N,/IOA4*%
X93932700Y-56134000D02*
X94234000Y-56134000D01*
X91677000Y-53878300D02*
X93932700Y-56134000D01*
X88422300Y-53878300D02*
X91677000Y-53878300D01*
X86614000Y-52070000D02*
X88422300Y-53878300D01*
%TO.N,/IOA1*%
X96319600Y-54155600D02*
X94234000Y-52070000D01*
X101402300Y-54155600D02*
X96319600Y-54155600D01*
X101854000Y-54607300D02*
X101402300Y-54155600D01*
X101854000Y-56134000D02*
X101854000Y-54607300D01*
%TO.N,/IOA6*%
X89154000Y-56134000D02*
X89154000Y-54607300D01*
X88876700Y-54330000D02*
X89154000Y-54607300D01*
X83794000Y-54330000D02*
X88876700Y-54330000D01*
X81534000Y-52070000D02*
X83794000Y-54330000D01*
%TO.N,/A2*%
X98873300Y-119670800D02*
X98873300Y-119670700D01*
X97252400Y-119670800D02*
X98873300Y-119670800D01*
X96426700Y-120496500D02*
X97252400Y-119670800D01*
X96426700Y-121401000D02*
X96426700Y-120496500D01*
X93111200Y-124716500D02*
X96426700Y-121401000D01*
X88897500Y-124716500D02*
X93111200Y-124716500D01*
X87630000Y-125984000D02*
X88897500Y-124716500D01*
%TO.N,/~{IOREQ}*%
X113789300Y-109984700D02*
X113789300Y-108204000D01*
X102870000Y-120904000D02*
X113789300Y-109984700D01*
X114882400Y-108204000D02*
X113789300Y-108204000D01*
X114882400Y-108204000D02*
X115316000Y-108204000D01*
X122936000Y-95504000D02*
X124462700Y-95504000D01*
X115316000Y-108204000D02*
X116842700Y-108204000D01*
X124462700Y-103594700D02*
X124462700Y-95504000D01*
X123663400Y-104394000D02*
X124462700Y-103594700D01*
X121800400Y-104394000D02*
X123663400Y-104394000D01*
X117990400Y-108204000D02*
X121800400Y-104394000D01*
X116842700Y-108204000D02*
X117990400Y-108204000D01*
%TO.N,/~{RD}*%
X109244400Y-105664000D02*
X105767900Y-109140500D01*
X115316000Y-105664000D02*
X109244400Y-105664000D01*
%TO.N,/A7*%
X89916000Y-103124000D02*
X91442700Y-103124000D01*
X91915200Y-103124000D02*
X91442700Y-103124000D01*
X93185200Y-104394000D02*
X91915200Y-103124000D01*
X97964500Y-104394000D02*
X93185200Y-104394000D01*
X100565600Y-106995100D02*
X97964500Y-104394000D01*
X104002100Y-106995100D02*
X100565600Y-106995100D01*
X104157000Y-107150000D02*
X104002100Y-106995100D01*
%TO.N,/D0*%
X71389900Y-117363900D02*
X74930000Y-120904000D01*
X71389900Y-115979700D02*
X71389900Y-117363900D01*
%TO.N,/D7*%
X81511800Y-87906200D02*
X84074000Y-85344000D01*
X74670500Y-87906200D02*
X81511800Y-87906200D01*
%TO.N,/A1*%
X87126100Y-99294100D02*
X93012900Y-99294100D01*
%TO.N,/~{WR}*%
X110533200Y-118320800D02*
X120680400Y-118320800D01*
X107950000Y-120904000D02*
X110533200Y-118320800D01*
%TO.N,/D4*%
X69960700Y-85625700D02*
X69960700Y-85344000D01*
X72900900Y-88565900D02*
X69960700Y-85625700D01*
X81922400Y-88565900D02*
X72900900Y-88565900D01*
X83494200Y-86994100D02*
X81922400Y-88565900D01*
X86762700Y-86994100D02*
X83494200Y-86994100D01*
X68834000Y-85344000D02*
X69960700Y-85344000D01*
%TO.N,/A0*%
X85335000Y-123199000D02*
X82550000Y-125984000D01*
X92105300Y-123199000D02*
X85335000Y-123199000D01*
X94073300Y-121231000D02*
X92105300Y-123199000D01*
X94073300Y-120355800D02*
X94073300Y-121231000D01*
X95640200Y-118788900D02*
X94073300Y-120355800D01*
X100039800Y-118788900D02*
X95640200Y-118788900D01*
%TO.N,/D5*%
X77981100Y-113795100D02*
X77367400Y-113795100D01*
X85090000Y-120904000D02*
X77981100Y-113795100D01*
D24*
%TO.N,GND*%
X74930000Y-125984000D02*
X77470000Y-125984000D01*
X99491700Y-108204000D02*
X96951700Y-105664000D01*
X102870000Y-108204000D02*
X99491700Y-108204000D01*
X95250000Y-105664000D02*
X96951700Y-105664000D01*
X72410000Y-52070000D02*
X76454000Y-52070000D01*
X68326000Y-56154000D02*
X72410000Y-52070000D01*
X86035700Y-91236300D02*
X87356000Y-89916000D01*
X73964300Y-91236300D02*
X86035700Y-91236300D01*
X72644000Y-89916000D02*
X73964300Y-91236300D01*
X81601700Y-53661700D02*
X84074000Y-56134000D01*
X78045700Y-53661700D02*
X81601700Y-53661700D01*
X76454000Y-52070000D02*
X78045700Y-53661700D01*
X91617700Y-107594600D02*
X93548300Y-105664000D01*
X91617700Y-108204000D02*
X91617700Y-107594600D01*
X95250000Y-105664000D02*
X93548300Y-105664000D01*
X90331900Y-108204000D02*
X91617700Y-108204000D01*
X90331900Y-108204000D02*
X89916000Y-108204000D01*
X82296000Y-105664000D02*
X83997700Y-105664000D01*
X78054300Y-108204000D02*
X80594300Y-105664000D01*
X75184000Y-108204000D02*
X78054300Y-108204000D01*
X82296000Y-105664000D02*
X80594300Y-105664000D01*
X88657700Y-91217700D02*
X87356000Y-89916000D01*
X99028300Y-91217700D02*
X88657700Y-91217700D01*
X100330000Y-89916000D02*
X99028300Y-91217700D01*
X97313700Y-85375700D02*
X96774000Y-84836000D01*
X115835700Y-85375700D02*
X97313700Y-85375700D01*
X120376000Y-89916000D02*
X115835700Y-85375700D01*
X85674300Y-105664000D02*
X83997700Y-105664000D01*
X88214300Y-108204000D02*
X85674300Y-105664000D01*
X89916000Y-108204000D02*
X88214300Y-108204000D01*
D25*
%TO.N,VCC*%
X72055700Y-100584000D02*
X69515700Y-103124000D01*
X75184000Y-100584000D02*
X72055700Y-100584000D01*
X67564000Y-103124000D02*
X69515700Y-103124000D01*
X94234000Y-73325700D02*
X99314000Y-73325700D01*
X94234000Y-71374000D02*
X94234000Y-73325700D01*
X99314000Y-71374000D02*
X99314000Y-73325700D01*
X82296000Y-92964000D02*
X75184000Y-92964000D01*
X67564000Y-92964000D02*
X75184000Y-92964000D01*
X108966000Y-89916000D02*
X106172000Y-92710000D01*
X117876000Y-89916000D02*
X108966000Y-89916000D01*
X99387200Y-88358800D02*
X97830000Y-89916000D01*
X101820800Y-88358800D02*
X99387200Y-88358800D01*
X106172000Y-92710000D02*
X101820800Y-88358800D01*
X86447000Y-88325000D02*
X84856000Y-89916000D01*
X96239000Y-88325000D02*
X86447000Y-88325000D01*
X97830000Y-89916000D02*
X96239000Y-88325000D01*
X66373800Y-76092500D02*
X67282300Y-75184000D01*
X65763800Y-76092500D02*
X66373800Y-76092500D01*
X68834000Y-75184000D02*
X67282300Y-75184000D01*
D24*
%TO.N,GND_AUDIO*%
X100584000Y-81026000D02*
X102616000Y-81026000D01*
X96774000Y-77216000D02*
X100584000Y-81026000D01*
X115922500Y-65453500D02*
X114574000Y-66802000D01*
X118305500Y-65453500D02*
X115922500Y-65453500D01*
X119654000Y-66802000D02*
X118305500Y-65453500D01*
D23*
%TO.N,/LEFT*%
X117582000Y-62230000D02*
X116158000Y-62230000D01*
X122154000Y-66802000D02*
X117582000Y-62230000D01*
%TO.N,Net-(C2-Pad1)*%
X113284000Y-84074000D02*
X116332000Y-81026000D01*
X110236000Y-84074000D02*
X113284000Y-84074000D01*
X111640900Y-73271100D02*
X110490000Y-74422000D01*
X111640900Y-64142900D02*
X111640900Y-73271100D01*
X111252000Y-63754000D02*
X111640900Y-64142900D01*
%TO.N,Net-(C1-Pad1)*%
X119380000Y-77978000D02*
X122428000Y-81026000D01*
X110236000Y-77978000D02*
X119380000Y-77978000D01*
X108021700Y-75763700D02*
X106591000Y-75763700D01*
X110236000Y-77978000D02*
X108021700Y-75763700D01*
%TD*%
M02*
